<?xml version="1.0" encoding="utf-8"?>
<!-- Generator: Adobe Illustrator 27.9.0, SVG Export Plug-In . SVG Version: 6.00 Build 0)  -->
<svg version="1.1" id="Layer_1_1_" xmlns="http://www.w3.org/2000/svg" xmlns:xlink="http://www.w3.org/1999/xlink" x="0px" y="0px"
	 viewBox="0 0 450 450" style="enable-background:new 0 0 450 450;" xml:space="preserve">
<style type="text/css">
	.st0{display:none;fill:url(#SVGID_1_);}
	.st1{fill:url(#SVGID_00000063607464417463960620000011128770255489725570_);}
	.st2{fill:#E0E0E0;}
	.st3{fill:#202A54;}
	.st4{fill:#E55601;}
	.st5{fill:url(#SVGID_00000102507753432991811380000004708850986942836356_);}
	.st6{fill:url(#SVGID_00000035499347396292382700000016925954254219949730_);}
	.st7{fill:#2F3D7B;}
	.st8{fill:#FF7701;}
	.st9{fill:#3A9E3D;}
	.st10{fill:#3FAB42;}
	.st11{fill:#46BE49;}
	.st12{fill:#61E041;}
	.st13{fill:url(#SVGID_00000108995639081598701720000015103701613552792755_);}
	.st14{fill:url(#SVGID_00000092423897917186274090000005883525263927949244_);}
	.st15{fill:#ADA4A3;}
	.st16{fill:#586DC4;}
	.st17{fill:#29366D;}
	.st18{fill:url(#SVGID_00000000910176921498927440000015176831804422741932_);}
	.st19{fill:#253162;}
	.st20{enable-background:new    ;}
	.st21{fill:#7E8AC2;}
	.st22{fill:#ABBAFA;}
	.st23{fill:#99A6DE;}
	.st24{fill:#FFB219;}
	.st25{fill:#FFDC5C;}
	.st26{fill:#FFD53D;}
	.st27{fill:#3CA33F;}
	.st28{fill:#50D953;}
	.st29{fill:#98AAE0;}
	.st30{fill:#E37900;}
	.st31{fill:#BACBFF;}
	.st32{fill:#F59403;}
	.st33{fill:#EBF0FF;}
	.st34{fill:#9EAFF9;}
	.st35{fill:#CEDDF8;}
	.st36{fill:#B5CFF4;}
	.st37{fill:url(#SVGID_00000153679246203950238520000000672683059426281096_);}
	.st38{fill:#0950E0;}
	.st39{fill:#2462E0;}
	.st40{fill:#5C84FF;}
	.st41{fill:#7899FF;}
	.st42{fill:url(#SVGID_00000125572520251550954730000017870732664330578850_);}
	.st43{fill:#2A3AE6;}
	.st44{fill:#B8C9FF;}
	.st45{fill:#FFFFFF;}
	.st46{fill:#99B2FF;}
	.st47{fill:#4572FF;}
	.st48{fill:#CDCECF;}
	.st49{fill:#2E3C78;}
	.st50{fill:url(#SVGID_00000139289492784351159060000003666405035962952363_);}
	.st51{fill:url(#SVGID_00000046301435695092848460000001236975114508623797_);}
	.st52{fill:url(#SVGID_00000056401929853326272180000011056155724052940450_);}
	.st53{fill:url(#SVGID_00000148661407388630449500000018239529183397288884_);}
	.st54{opacity:0.64;fill:#6792D1;}
	.st55{opacity:0.64;fill:#85A9D4;}
	.st56{fill:#D3DBFF;}
	.st57{fill:url(#SVGID_00000127725377769166543470000018331523421783445941_);}
	.st58{opacity:0.64;fill:#A6B1C7;}
	.st59{fill:#B4C1FB;}
	.st60{fill:#8795D4;}
	.st61{fill:#8E9EE0;}
	.st62{fill:#CED2E0;}
	.st63{fill:#A2B2F3;}
	.st64{fill:#AFBDFB;}
	.st65{fill:#F0F0F0;}
	.st66{fill:#F7F7F7;}
	.st67{fill:#D6D6D6;}
	.st68{display:none;}
	.st69{display:inline;}
	.st70{fill:#FF3035;}
</style>
<g>
	<linearGradient id="SVGID_1_" gradientUnits="userSpaceOnUse" x1="378.6779" y1="491.1779" x2="71.3221" y2="-41.1779">
		<stop  offset="0.1045" style="stop-color:#3D74FF"/>
		<stop  offset="0.9352" style="stop-color:#5283FF"/>
	</linearGradient>
	<rect x="0" class="st0" width="450" height="450"/>
	
		<radialGradient id="SVGID_00000025427862300101451120000012615014912194442146_" cx="225" cy="6417.6514" r="215.9588" gradientTransform="matrix(1 0 0 0.5759 0 -3378.3806)" gradientUnits="userSpaceOnUse">
		<stop  offset="0.3946" style="stop-color:#B8D8FC"/>
		<stop  offset="1" style="stop-color:#FFFFFF"/>
	</radialGradient>
	<path style="fill:url(#SVGID_00000025427862300101451120000012615014912194442146_);" d="M379.8,406.92
		c-84.96,49.05-223.14,48.8-308.63-0.56C-14.32,357-14.76,277.22,70.2,228.17c84.96-49.05,223.14-48.8,308.63,0.56
		C464.32,278.09,464.76,357.87,379.8,406.92z"/>
	<polygon class="st2" points="105.23,354.44 237.71,277.95 220.97,268.28 88.48,344.77 	"/>
	<g>
		<path class="st2" d="M188.4,323.58l-75.46,43.56c-2.45,1.41-2.14,3.88,0.69,5.51l79.93,46.15c2.82,1.63,7.1,1.81,9.54,0.4
			l75.46-43.56c2.45-1.41,2.14-3.88-0.69-5.51l-79.93-46.15C195.11,322.35,190.84,322.17,188.4,323.58z"/>
		<g>
			<path class="st3" d="M224.73,399.8l4.48-2.59c0,0-0.7,3.23-1.05,3.35C227.82,400.69,226,402.19,224.73,399.8z"/>
			<g>
				<g>
					<path class="st4" d="M264.61,363.7c-1.02,0.51-2.04,0.99-3.07,1.46l9.92,6v-4.24l-6.02-3.64
						C265.16,363.42,264.88,363.56,264.61,363.7z"/>
					
						<linearGradient id="SVGID_00000096027532793746724200000014306473624736270775_" gradientUnits="userSpaceOnUse" x1="-11329.6162" y1="372.5966" x2="-11191.8584" y2="372.5966" gradientTransform="matrix(-1 0 0 1 -11058.1602 0)">
						<stop  offset="0.4797" style="stop-color:#2F3D7B"/>
						<stop  offset="0.4929" style="stop-color:#2C3973"/>
						<stop  offset="0.5212" style="stop-color:#273366"/>
						<stop  offset="0.5486" style="stop-color:#253162"/>
					</linearGradient>
					<path style="fill:url(#SVGID_00000096027532793746724200000014306473624736270775_);" d="M205.51,410.9l64.48-37.23
						c1.96-1.13,1.96-3.96,0-5.09l-61.94-35.76l-74.35,38.69v4.24l60.87,35.14C197.95,412.85,202.12,412.85,205.51,410.9z"/>
					<path class="st3" d="M126.59,349.48l81.46-20.89l9.95,3.27v2.47l51.99,30.01c1.96,1.13,1.96,3.96,0,5.09l-64.48,37.23
						c-3.38,1.95-7.55,1.95-10.94,0l-49.39-28.52l-11.48-6.63l-4.07-1.2l-6.9-11.95L126.59,349.48z"/>
				</g>
				<g>
					<g>
						
							<linearGradient id="SVGID_00000029034109714217033000000004205178504827810721_" gradientUnits="userSpaceOnUse" x1="-11323.4307" y1="322.7142" x2="-11254.3594" y2="322.7142" gradientTransform="matrix(-1 0 0 1 -11058.1602 0)">
							<stop  offset="0.8779" style="stop-color:#C36060"/>
							<stop  offset="0.9298" style="stop-color:#BF5E5E"/>
							<stop  offset="0.9833" style="stop-color:#B25858"/>
							<stop  offset="1" style="stop-color:#AD5555"/>
						</linearGradient>
						<path style="fill:url(#SVGID_00000029034109714217033000000004205178504827810721_);" d="M196.2,312.21
							c0,1.45,0.19,2.95,0.55,4.47c1.18,0.31,2.35,0.62,3.53,0.94c-0.28-1.12-0.43-2.23-0.43-3.3c0-5.26,3.68-7.41,8.21-4.8
							l53.32,32.23c1.31-0.6,2.62-1.22,3.9-1.88l-57.22-34.59C201.52,301.51,196.2,304.62,196.2,312.21z"/>
						<path class="st7" d="M264.61,340.39c-1.02,0.51-2.04,0.99-3.07,1.46l9.92,6v-4.24l-6.02-3.64
							C265.16,340.11,264.88,340.25,264.61,340.39z"/>
						<path class="st8" d="M200.32,317.8c-1.18-0.31-2.35-0.63-3.53-0.93c1.56,6.39,6.02,12.94,11.26,15.96l9.95,3.27l0-4.24
							l-9.95-3.27C204.49,326.54,201.46,322.14,200.32,317.8z"/>
					</g>
				</g>
				<g>
					<path class="st9" d="M136.64,368.96l67.22-38.81l66.09,39.6l-59.13,32.32c0,0-1.74,8.25-7.1,6.52
						C198.05,406.76,136.64,368.96,136.64,368.96z"/>
					<path class="st9" d="M202.49,403.94L221.43,393c0,0-71.72-43.82-79.62-42.48c-7.89,1.34-12.97,2.41-8.98,8.9
						c3.99,6.49,18.09,13.1,18.09,13.1L202.49,403.94z"/>
					<path class="st10" d="M136.78,354.28L204,315.47l66.09,39.6c0,0,3.66,5.69,4.14,8.88c0.48,3.19-0.59,6.47-0.59,6.47
						l-67.24,38.82c0,0,2.76-5.79-0.25-10.92C203.13,393.18,136.78,354.28,136.78,354.28z"/>
					<g>
						<g>
							<path class="st10" d="M204,315.47l64.38,37.17c4.1,2.37,7.43,8.16,7.43,12.93c0,4.76-3.33,6.71-7.43,4.34L204,332.74v-2.66
								l64.38,37.17c2.84,1.64,5.14,0.29,5.14-3.01c0-3.3-2.31-7.31-5.14-8.95L204,318.13V315.47z"/>
						</g>
					</g>
					<polygon class="st11" points="207.21,392.05 274.43,353.24 274.43,350.58 205.33,310.68 138.11,352.15 					"/>
					<g>
						<path class="st11" d="M197.9,315.03c0,0.69,0.07,1.4,0.2,2.12c0.73,0.18,1.47,0.36,2.2,0.54c-0.08-0.46-0.12-0.91-0.12-1.34
							c0-3.3,2.31-4.65,5.14-3.01l69.1,39.89l0-2.66l-69.1-39.89C201.23,308.32,197.9,310.27,197.9,315.03z"/>
					</g>
					<g>
						<g>
							<path class="st12" d="M136.78,354.28l64.38,37.17c4.1,2.37,7.43,8.16,7.43,12.93c0,4.76-3.33,6.71-7.43,4.34l-64.38-37.17
								v-2.66l64.38,37.17c2.84,1.64,5.14,0.29,5.14-3.01c0-3.3-2.31-7.31-5.14-8.95l-64.38-37.17V354.28z"/>
						</g>
						<g>
							<path class="st12" d="M202.49,403.94l-64.38-37.17c-4.1-2.37-7.43-8.16-7.43-12.93c0-4.76,3.33-6.71,7.43-4.34l69.1,39.89
								v2.66l-69.1-39.89c-2.84-1.64-5.14-0.29-5.14,3.01c0,3.3,2.31,7.31,5.14,8.95l64.38,37.17V403.94z"/>
						</g>
					</g>
				</g>
				
					<linearGradient id="SVGID_00000142895265151506257540000006215368266549417135_" gradientUnits="userSpaceOnUse" x1="-11329.6162" y1="348.8742" x2="-11188.6367" y2="348.8742" gradientTransform="matrix(-1 0 0 1 -11058.1602 0)">
					<stop  offset="0.4797" style="stop-color:#2F3D7B"/>
					<stop  offset="0.4929" style="stop-color:#2C3973"/>
					<stop  offset="0.5212" style="stop-color:#273366"/>
					<stop  offset="0.5486" style="stop-color:#253162"/>
				</linearGradient>
				<path style="fill:url(#SVGID_00000142895265151506257540000006215368266549417135_);" d="M205.51,387.59l64.48-37.23
					c1.96-1.13,1.96-3.96,0-5.09l-61.94-35.76l-3.93,0.48l-4.39-1.31l-69.25,39.98l3.22,3.77l60.87,35.14
					C197.95,389.55,202.12,389.55,205.51,387.59z"/>
				
					<linearGradient id="SVGID_00000119816544408511531500000014689183473861236926_" gradientUnits="userSpaceOnUse" x1="-11274.9219" y1="376.8561" x2="-11239.3125" y2="315.1778" gradientTransform="matrix(-1 0 0 1 -11058.1602 0)">
					<stop  offset="0.8779" style="stop-color:#354589"/>
					<stop  offset="0.9487" style="stop-color:#334385"/>
					<stop  offset="1" style="stop-color:#303F7D"/>
				</linearGradient>
				<path style="fill:url(#SVGID_00000119816544408511531500000014689183473861236926_);" d="M199.73,304.45
					c2.14-1.22,5.08-1.04,8.32,0.83l61.94,35.76c1.96,1.13,1.96,3.96,0,5.09l-64.48,37.23c-3.38,1.95-7.55,1.95-10.94,0L151.7,358.6
					l-18-10.39c-3.24-1.87-6.18-2.05-8.32-0.83L199.73,304.45z"/>
				<path class="st15" d="M223.3,372.02l-11.62-6.71c-2.7-1.56-2.7-5.46,0-7.02l11.56-6.67c2.62-1.51,5.86-1.51,8.48,0l13.46,7.77
					c0.29,0.17,0.58,0.36,0.86,0.56l-21.88,12.63C223.62,372.15,223.3,372.02,223.3,372.02z"/>
				<g>
					<g>
						<path class="st16" d="M133.72,345.1c-1.3-0.38-2.68-0.42-3.95-0.32c-0.23,0.01-0.41,0.08-0.53,0.18
							c-0.12,0.09-0.16,0.21-0.25,0.34c-0.09,0.12,0.04,0.32,0.22,0.41c0.18,0.1,0.4,0.15,0.62,0.13c1.25-0.09,2.45-0.05,3.6,0.28
							c0.4,0.11,0.8,0.03,0.92-0.25C134.46,345.61,134.19,345.23,133.72,345.1z"/>
						<path class="st16" d="M141.55,349.35l-3.3-1.9c-0.39-0.22-0.82-0.2-0.96,0.06c-0.14,0.26,0.07,0.65,0.46,0.88l3.3,1.9
							c0.39,0.22,0.82,0.2,0.96-0.06C142.14,349.96,141.94,349.57,141.55,349.35z"/>
						<path class="st16" d="M149.18,353.75l-3.3-1.9c-0.39-0.22-0.82-0.2-0.96,0.06c-0.14,0.26,0.07,0.65,0.45,0.87l3.3,1.9
							c0.39,0.22,0.82,0.2,0.96-0.06C149.77,354.37,149.57,353.98,149.18,353.75z"/>
						<path class="st16" d="M156.81,358.16l-3.3-1.9c-0.39-0.22-0.82-0.2-0.96,0.06c-0.14,0.26,0.06,0.65,0.45,0.87l3.3,1.9
							c0.39,0.22,0.82,0.2,0.96-0.06C157.4,358.77,157.2,358.38,156.81,358.16z"/>
						<path class="st16" d="M164.44,362.56l-3.3-1.9c-0.39-0.22-0.82-0.2-0.96,0.06c-0.14,0.26,0.06,0.65,0.45,0.87l3.3,1.9
							c0.39,0.22,0.82,0.2,0.96-0.06C165.03,363.18,164.83,362.78,164.44,362.56z"/>
						<path class="st16" d="M172.07,366.96l-3.3-1.9c-0.39-0.22-0.82-0.2-0.96,0.06c-0.14,0.26,0.06,0.65,0.45,0.87l3.3,1.9
							c0.39,0.22,0.82,0.2,0.97-0.06C172.66,367.58,172.45,367.19,172.07,366.96z"/>
						<path class="st16" d="M179.7,371.37l-3.3-1.9c-0.39-0.22-0.82-0.2-0.97,0.05c-0.14,0.25,0.06,0.65,0.45,0.87l3.3,1.9
							c0.39,0.22,0.82,0.2,0.97-0.05C180.28,371.99,180.08,371.59,179.7,371.37z"/>
						<path class="st16" d="M187.32,375.78l-3.3-1.9c-0.39-0.22-0.82-0.2-0.97,0.05c-0.14,0.25,0.06,0.64,0.44,0.87l3.3,1.9
							c0.39,0.22,0.83,0.2,0.97-0.05C187.91,376.39,187.71,376,187.32,375.78z"/>
						<path class="st16" d="M194.95,380.18l-3.3-1.9c-0.39-0.22-0.83-0.2-0.97,0.05c-0.15,0.25,0.05,0.64,0.44,0.87l3.3,1.9
							c0.39,0.22,0.83,0.2,0.97-0.05C195.54,380.79,195.34,380.4,194.95,380.18z"/>
						<path class="st16" d="M202.87,381.36c-1.11,0.42-2.32,0.59-3.51,0.49c-0.41-0.03-0.8,0.13-0.85,0.42
							c-0.06,0.29,0.28,0.6,0.76,0.64c1.34,0.12,2.71-0.08,3.97-0.56c0.45-0.17,0.69-0.56,0.56-0.82
							C203.68,381.27,203.26,381.21,202.87,381.36z"/>
						<path class="st16" d="M210.47,377.09l-3.3,1.9c-0.39,0.22-0.59,0.61-0.44,0.87c0.15,0.25,0.58,0.28,0.97,0.05l3.3-1.9
							c0.39-0.22,0.59-0.61,0.44-0.87C211.3,376.89,210.86,376.87,210.47,377.09z"/>
						<path class="st16" d="M218.1,372.69l-3.3,1.9c-0.39,0.22-0.59,0.61-0.44,0.87c0.15,0.25,0.58,0.28,0.97,0.05l3.3-1.9
							c0.39-0.22,0.59-0.61,0.44-0.87C218.93,372.49,218.49,372.46,218.1,372.69z"/>
						<path class="st16" d="M225.73,368.28l-3.3,1.9c-0.39,0.22-0.59,0.61-0.44,0.87c0.15,0.25,0.59,0.27,0.97,0.05l3.3-1.9
							c0.39-0.22,0.59-0.61,0.44-0.87C226.55,368.08,226.11,368.06,225.73,368.28z"/>
						<path class="st16" d="M233.35,363.88l-3.3,1.9c-0.39,0.22-0.59,0.61-0.44,0.87c0.15,0.25,0.59,0.27,0.98,0.05l3.3-1.9
							c0.39-0.22,0.59-0.61,0.44-0.87C234.18,363.68,233.74,363.66,233.35,363.88z"/>
						<path class="st16" d="M240.98,359.48l-3.3,1.9c-0.39,0.22-0.59,0.61-0.44,0.87c0.15,0.25,0.59,0.27,0.98,0.05l3.3-1.9
							c0.39-0.22,0.59-0.61,0.44-0.86C241.81,359.28,241.37,359.25,240.98,359.48z"/>
						<path class="st16" d="M248.61,355.07l-3.3,1.9c-0.39,0.22-0.58,0.61-0.44,0.86c0.15,0.25,0.59,0.27,0.98,0.05l3.3-1.9
							c0.39-0.22,0.58-0.61,0.44-0.86C249.43,354.87,249,354.85,248.61,355.07z"/>
						<path class="st16" d="M256.23,350.67l-3.3,1.9c-0.39,0.22-0.58,0.61-0.44,0.86c0.15,0.25,0.59,0.27,0.98,0.05l3.3-1.9
							c0.39-0.22,0.58-0.61,0.44-0.86C257.06,350.47,256.62,350.45,256.23,350.67z"/>
						<path class="st16" d="M263.86,346.27l-3.3,1.9c-0.39,0.22-0.58,0.61-0.43,0.86c0.15,0.25,0.59,0.27,0.98,0.05l3.3-1.9
							c0.39-0.22,0.58-0.61,0.43-0.86C264.69,346.07,264.25,346.04,263.86,346.27z"/>
						<path class="st16" d="M266.49,342.42l1.65,0.95l0.37,0.21l-0.32,0.19c-0.39,0.22-0.58,0.61-0.43,0.86
							c0.15,0.25,0.59,0.27,0.98,0.05l0.21-0.12l0.1-0.06c0.05-0.03,0.13-0.08,0.18-0.13c0.24-0.21,0.37-0.53,0.35-0.84
							c-0.01-0.32-0.18-0.62-0.44-0.8l-0.45-0.27l-1.65-0.95c-0.39-0.22-0.83-0.2-0.98,0.05
							C265.91,341.8,266.1,342.19,266.49,342.42z"/>
						<path class="st16" d="M258.86,338.01l3.3,1.9c0.39,0.22,0.83,0.2,0.98-0.05c0.15-0.25-0.05-0.64-0.43-0.86l-3.3-1.9
							c-0.39-0.22-0.83-0.2-0.98,0.05C258.28,337.4,258.48,337.79,258.86,338.01z"/>
						<path class="st16" d="M251.24,333.61l3.3,1.9c0.39,0.22,0.83,0.2,0.98-0.05c0.15-0.25-0.05-0.64-0.43-0.86l-3.3-1.9
							c-0.39-0.22-0.83-0.2-0.98,0.05C250.65,333,250.85,333.39,251.24,333.61z"/>
						<path class="st16" d="M243.61,329.21l3.3,1.9c0.39,0.22,0.83,0.2,0.98-0.05c0.15-0.25-0.05-0.64-0.44-0.86l-3.3-1.9
							c-0.39-0.22-0.83-0.2-0.98,0.05C243.03,328.59,243.22,328.98,243.61,329.21z"/>
						<path class="st16" d="M235.98,324.8l3.3,1.9c0.39,0.22,0.83,0.2,0.98-0.05c0.15-0.25-0.05-0.64-0.44-0.87l-3.3-1.9
							c-0.39-0.22-0.83-0.2-0.98,0.05C235.4,324.19,235.6,324.58,235.98,324.8z"/>
						<path class="st16" d="M228.36,320.4l3.3,1.9c0.39,0.22,0.83,0.2,0.98-0.05c0.15-0.25-0.05-0.64-0.44-0.87l-3.3-1.9
							c-0.39-0.22-0.83-0.2-0.98,0.05C227.77,319.79,227.97,320.18,228.36,320.4z"/>
						<path class="st16" d="M220.73,316l3.3,1.9c0.39,0.22,0.83,0.2,0.97-0.05c0.15-0.25-0.05-0.64-0.44-0.87l-3.3-1.9
							c-0.39-0.22-0.83-0.2-0.97,0.05C220.14,315.38,220.34,315.77,220.73,316z"/>
						<path class="st16" d="M213.1,311.59l3.3,1.9c0.39,0.22,0.83,0.2,0.97-0.05c0.15-0.25-0.05-0.64-0.44-0.87l-3.3-1.9
							c-0.39-0.22-0.83-0.2-0.97,0.05C212.52,310.98,212.72,311.37,213.1,311.59z"/>
						<path class="st16" d="M205.48,307.22c1.1,0.58,2.19,1.25,3.29,1.87c0.39,0.22,0.83,0.2,0.97-0.05
							c0.15-0.25-0.05-0.64-0.44-0.87c-1.11-0.63-2.18-1.28-3.33-1.89c-0.4-0.21-0.85-0.16-0.97,0.1
							C204.87,306.65,205.09,307.02,205.48,307.22z"/>
						<path class="st16" d="M197.47,306.43c1.13-0.36,2.39-0.59,3.58-0.65c0.42-0.02,0.76-0.23,0.79-0.52
							c0.03-0.29-0.36-0.56-0.84-0.54c-1.34,0.07-2.6,0.3-3.89,0.71c-0.21,0.06-0.49,0.26-0.54,0.41c-0.08,0.16-0.1,0.32-0.02,0.44
							c0.07,0.13,0.22,0.2,0.39,0.21C197.16,306.48,197.25,306.51,197.47,306.43z"/>
					</g>
				</g>
				<path class="st17" d="M211.67,356.14l11.56-6.67c2.62-1.51,5.86-1.51,8.48,0l13.46,7.77l-21.87,12.63l-11.62-6.71
					C208.97,361.6,208.97,357.7,211.67,356.14z"/>
				<path class="st17" d="M218.65,365.7c0.22-0.27,0.44-0.55,0.65-0.82l-9.65-7.26l0,1.98l8.65,6.51
					C218.42,365.97,218.54,365.84,218.65,365.7z"/>
				
					<linearGradient id="SVGID_00000010277618923249419680000004048088316348808354_" gradientUnits="userSpaceOnUse" x1="-11303.4541" y1="391.7617" x2="-11278.7646" y2="348.9984" gradientTransform="matrix(-1 0 0 1 -11058.1602 0)">
					<stop  offset="0.4504" style="stop-color:#2A366D"/>
					<stop  offset="0.5139" style="stop-color:#354589"/>
					<stop  offset="0.5215" style="stop-color:#35468A"/>
					<stop  offset="0.612" style="stop-color:#3A4B95"/>
					<stop  offset="0.7109" style="stop-color:#3B4D99"/>
				</linearGradient>
				<path style="fill:url(#SVGID_00000010277618923249419680000004048088316348808354_);" d="M211.67,354.15l11.56-6.67
					c2.62-1.51,5.86-1.51,8.48,0l13.46,7.77c3.79,2.19,6.87,7.55,6.87,11.95v17.33c0,2.21-0.78,3.76-2.03,4.49l-21.86,12.62
					l1.37-17.61c0,0-0.11-7.4-2.26-11.43s-3.97-4.73-3.97-4.73l-11.62-6.71C208.97,359.61,208.97,355.71,211.67,354.15z"/>
				<g>
					<g>
						<path class="st19" d="M121.85,355.14c0,7.59,5.32,16.84,11.85,20.62v-4.24c-4.52-2.61-8.21-9.01-8.21-14.27
							c0-5.26,3.68-7.41,8.21-4.8l25.99,15.01c0.36-1.19,0.76-2.38,1.22-3.53l-27.21-15.71
							C127.16,344.44,121.85,347.55,121.85,355.14z"/>
					</g>
				</g>
			</g>
			<path class="st17" d="M223.3,369.87c2.85,1.64,5.17,5.67,5.17,8.98v17.33c0,2.73-1.58,4.13-3.73,3.61l-1.92,1.11l0.49,0.28
				c3.79,2.19,6.87,0.39,6.87-4.02v-17.34c0-4.4-3.08-9.77-6.87-11.95V369.87z"/>
			<g>
				<g>
					<path class="st16" d="M231.37,395.85l-0.01,2.69c0,0.32,0.24,0.58,0.53,0.58c0.29,0,0.53-0.26,0.53-0.58l0.01-2.69
						c0-0.32-0.24-0.58-0.53-0.58C231.61,395.27,231.37,395.53,231.37,395.85z"/>
					<path class="st16" d="M231.37,389.62v2.69c0,0.32,0.24,0.58,0.53,0.58c0.29,0,0.53-0.26,0.53-0.58v-2.69
						c0-0.32-0.24-0.58-0.53-0.58C231.61,389.05,231.37,389.31,231.37,389.62z"/>
					<path class="st16" d="M231.37,383.5v0.66v1.33l0.92-0.96l0.04-0.04l-0.91-0.41l-0.04,0.49v1.52c0,0.32,0.24,0.58,0.53,0.58
						c0.29,0,0.53-0.26,0.53-0.58v-1.48l0.04-0.45l0.12-1.49l-1.03,1.08l-0.04,0.04l0.92,0.37v-0.66c0-0.32-0.24-0.58-0.53-0.58
						C231.61,382.92,231.37,383.18,231.37,383.5z"/>
					<path class="st16" d="M231.32,377.33c0.08,0.83,0.04,1.74,0.05,2.64c0,0.32,0.24,0.58,0.53,0.58c0.29,0,0.53-0.26,0.53-0.58
						v-1.34c0-0.22,0-0.45-0.01-0.69c-0.01-0.24-0.01-0.47-0.04-0.7c-0.03-0.33-0.3-0.57-0.6-0.52
						C231.5,376.75,231.29,377.03,231.32,377.33z"/>
					<path class="st16" d="M229.41,371.69c0.43,0.75,0.81,1.54,1.12,2.35c0.1,0.29,0.41,0.45,0.69,0.36
						c0.28-0.09,0.41-0.42,0.3-0.73c-0.33-0.87-0.73-1.7-1.19-2.5c-0.17-0.28-0.51-0.39-0.76-0.23
						C229.33,371.09,229.26,371.43,229.41,371.69z"/>
					<path class="st16" d="M225.5,367.13c0.16,0.14,0.32,0.28,0.47,0.43l0.06,0.06l0.03,0.03c0.03,0.03,0.04,0.03,0.07,0.07
						l0.12,0.11l0.24,0.21c0.17,0.14,0.31,0.29,0.47,0.44l0.23,0.23l0.22,0.24c0.21,0.22,0.55,0.26,0.77,0.07
						c0.23-0.19,0.23-0.55,0.01-0.79l-0.23-0.26l-0.25-0.25c-0.17-0.16-0.33-0.33-0.51-0.48l-0.26-0.23l-0.13-0.12l0.01,0.01
						l-0.03-0.03l-0.06-0.06c-0.17-0.17-0.34-0.33-0.52-0.48c-0.25-0.22-0.62-0.2-0.8,0.04C225.23,366.6,225.28,366.93,225.5,367.13
						z"/>
					<path class="st16" d="M220.27,363.97l2.33,1.34c0.27,0.16,0.62,0.08,0.76-0.17c0.15-0.25,0.04-0.59-0.23-0.75l-2.33-1.34
						c-0.27-0.16-0.62-0.08-0.76,0.17C219.89,363.47,220,363.81,220.27,363.97z"/>
					<path class="st16" d="M214.88,360.86l2.33,1.34c0.27,0.16,0.62,0.08,0.76-0.17c0.15-0.25,0.04-0.59-0.23-0.75l-2.33-1.34
						c-0.27-0.16-0.62-0.08-0.76,0.17C214.51,360.36,214.61,360.7,214.88,360.86z"/>
					<path class="st16" d="M212.75,355.7l-0.15,0.09c-0.06,0.04-0.12,0.07-0.18,0.12c-0.12,0.09-0.23,0.18-0.33,0.3
						c-0.2,0.22-0.36,0.49-0.45,0.77c-0.18,0.56-0.14,1.19,0.15,1.72c0.1,0.19,0.27,0.31,0.43,0.34c0.16,0.03,0.3-0.03,0.4-0.14
						c0.1-0.11,0.13-0.25,0.15-0.37c0.01-0.12,0.01-0.23-0.04-0.32c-0.07-0.13-0.11-0.28-0.13-0.44c-0.01-0.15,0.01-0.31,0.05-0.46
						c0.05-0.14,0.12-0.27,0.22-0.38c0.05-0.06,0.11-0.1,0.17-0.15c0.03-0.02,0.07-0.04,0.1-0.07l0.14-0.08
						c0.27-0.16,0.38-0.5,0.23-0.75C213.37,355.62,213.02,355.55,212.75,355.7z"/>
					<path class="st16" d="M218.13,352.59l-2.33,1.34c-0.27,0.16-0.38,0.49-0.23,0.75c0.15,0.25,0.49,0.33,0.76,0.17l2.33-1.34
						c0.27-0.16,0.38-0.5,0.23-0.75C218.75,352.51,218.41,352.44,218.13,352.59z"/>
					<path class="st16" d="M223.52,349.48l-2.33,1.34c-0.27,0.16-0.38,0.5-0.23,0.75c0.15,0.25,0.49,0.33,0.76,0.17l2.33-1.34
						c0.27-0.16,0.38-0.49,0.23-0.75C224.14,349.4,223.8,349.33,223.52,349.48z"/>
					<path class="st16" d="M229.91,348.69c-0.91-0.36-1.89-0.52-2.87-0.45c-0.35,0.02-0.59,0.31-0.54,0.6
						c0.05,0.29,0.32,0.48,0.61,0.46c0.82-0.05,1.64,0.08,2.4,0.38c0.26,0.1,0.58,0,0.72-0.26
						C230.37,349.17,230.23,348.82,229.91,348.69z"/>
					<path class="st16" d="M235.39,351.78l-2.33-1.34c-0.27-0.16-0.62-0.08-0.76,0.17c-0.15,0.25-0.04,0.59,0.23,0.75l2.33,1.34
						c0.27,0.16,0.62,0.08,0.76-0.17C235.77,352.27,235.67,351.94,235.39,351.78z"/>
					<path class="st16" d="M240.78,354.89l-2.33-1.34c-0.27-0.16-0.62-0.08-0.76,0.17c-0.15,0.25-0.04,0.59,0.23,0.75l2.33,1.34
						c0.27,0.16,0.62,0.08,0.76-0.17C241.16,355.38,241.05,355.05,240.78,354.89z"/>
					<path class="st16" d="M246.1,358.33c-0.34-0.33-0.69-0.64-1.07-0.92c-0.38-0.29-0.81-0.54-1.18-0.76
						c-0.27-0.16-0.62-0.08-0.76,0.17c-0.15,0.25-0.04,0.59,0.23,0.75c0.19,0.11,0.4,0.22,0.56,0.34c0.17,0.11,0.35,0.22,0.52,0.35
						c0.34,0.25,0.66,0.53,0.96,0.83c0.21,0.21,0.56,0.23,0.78,0.03C246.34,358.93,246.33,358.57,246.1,358.33z"/>
					<path class="st16" d="M249.51,363.76c-0.31-0.88-0.71-1.72-1.18-2.52c-0.17-0.28-0.51-0.38-0.76-0.22
						c-0.24,0.16-0.32,0.5-0.16,0.76c0.43,0.75,0.81,1.53,1.09,2.34c0.1,0.29,0.41,0.45,0.68,0.37
						C249.48,364.4,249.61,364.07,249.51,363.76z"/>
					<path class="st16" d="M250.17,370.08v-2.69c0-0.15-0.06-0.31-0.17-0.42c-0.1-0.11-0.24-0.17-0.38-0.16
						c-0.15,0.01-0.28,0.08-0.37,0.18c-0.09,0.1-0.14,0.23-0.15,0.4v2.69c0,0.32,0.24,0.58,0.53,0.58
						C249.93,370.66,250.17,370.4,250.17,370.08z"/>
					<path class="st16" d="M250.17,376.3v-2.69c0-0.32-0.24-0.58-0.53-0.58c-0.29,0-0.53,0.26-0.53,0.58v2.69
						c0,0.32,0.24,0.58,0.53,0.58C249.93,376.88,250.17,376.62,250.17,376.3z"/>
					<path class="st16" d="M250.17,382.52v-2.69c0-0.32-0.24-0.58-0.53-0.58c-0.29,0-0.53,0.26-0.53,0.58v2.69
						c0,0.32,0.24,0.58,0.53,0.58C249.93,383.1,250.17,382.84,250.17,382.52z"/>
					<path class="st16" d="M250.12,388.75l0.04-2.69c0-0.32-0.23-0.58-0.52-0.58c-0.29,0-0.53,0.25-0.54,0.57l-0.04,2.69
						c0,0.32,0.23,0.58,0.52,0.58C249.87,389.32,250.11,389.07,250.12,388.75z"/>
				</g>
			</g>
			<path class="st17" d="M220.68,360.74c3.2,1.85,8.36,1.85,11.54,0c3.18-1.85,3.16-4.84-0.04-6.69c-3.2-1.85-8.37-1.85-11.54,0
				C217.46,355.9,217.48,358.89,220.68,360.74z"/>
			<g>
				<g class="st20">
					<g>
						<path class="st21" d="M218.27,356.81l0-1.26c0,1.22,0.8,2.44,2.41,3.37l0,1.26C219.07,359.25,218.27,358.03,218.27,356.81z"/>
					</g>
					<g>
						<path class="st22" d="M221.7,358.04c-2.63-1.52-2.65-3.98-0.03-5.5c2.61-1.52,6.87-1.52,9.5,0c2.63,1.52,2.64,3.99,0.03,5.5
							C228.59,359.56,224.33,359.56,221.7,358.04z"/>
					</g>
					<g>
						<path class="st21" d="M234.6,355.6l0,1.26c0,1.2-0.79,2.4-2.37,3.32c-3.18,1.85-8.34,1.85-11.54,0l0-1.26
							c3.2,1.85,8.36,1.85,11.54,0C233.8,358,234.59,356.8,234.6,355.6z"/>
					</g>
					<g>
						<path class="st23" d="M221.7,358.04l-1.02,0.88c-3.2-1.85-3.21-4.84-0.04-6.69c3.18-1.85,8.34-1.85,11.54,0
							c3.2,1.85,3.21,4.84,0.04,6.69c-3.18,1.85-8.34,1.85-11.54,0L221.7,358.04c2.63,1.52,6.89,1.52,9.5,0
							c2.61-1.52,2.6-3.98-0.03-5.5c-2.63-1.52-6.89-1.52-9.5,0C219.05,354.05,219.07,356.52,221.7,358.04z"/>
					</g>
				</g>
			</g>
		</g>
	</g>
	<g>
		<path class="st2" d="M399.97,318.64c-7.16-4.13-18.74-4.16-25.85-0.05c-7.12,4.11-7.08,10.79,0.08,14.93
			c7.16,4.13,18.74,4.16,25.85,0.05C407.17,329.45,407.13,322.77,399.97,318.64z"/>
		<path class="st2" d="M382.13,318.64c-7.16-4.13-18.74-4.16-25.85-0.05c-7.12,4.11-7.08,10.79,0.08,14.93
			c3.57,2.06,8.23,3.1,12.89,3.11c4.7,0.02,17.98,0,17.98,0S389.29,322.77,382.13,318.64z"/>
		<g>
			<g>
				<g>
					<path class="st24" d="M399.97,317.59c-7.16-4.13-18.74-4.16-25.85-0.05c-7.12,4.11-7.08,10.79,0.08,14.93
						c7.16,4.13,18.74,4.16,25.85,0.05C407.17,328.4,407.13,321.72,399.97,317.59z"/>
					<polygon class="st24" points="368.8,324.89 368.8,321.63 405.36,321.77 405.36,325.12 					"/>
					<path class="st24" d="M396.71,316.06c-5.35-3.09-14.01-3.11-19.33-0.04c-5.32,3.07-5.29,8.07,0.06,11.16
						c5.35,3.09,14.01,3.11,19.33,0.03C402.1,324.15,402.07,319.15,396.71,316.06z"/>
					<path class="st25" d="M399.97,314.19c-7.16-4.13-18.74-4.16-25.85-0.05c-7.12,4.11-7.08,10.79,0.08,14.93
						c7.16,4.13,18.74,4.16,25.85,0.05C407.17,325,407.13,318.32,399.97,314.19z M377.45,327.19c-5.35-3.09-5.38-8.09-0.06-11.16
						c5.32-3.07,13.97-3.06,19.33,0.04c5.35,3.09,5.38,8.09,0.06,11.16C391.46,330.29,382.8,330.28,377.45,327.19z"/>
					<path class="st26" d="M396.71,317.12c-5.35-3.09-14.01-3.11-19.33-0.04c-5.32,3.07-5.29,8.07,0.06,11.16
						c5.35,3.09,14.01,3.11,19.33,0.03C402.1,325.21,402.07,320.21,396.71,317.12z"/>
				</g>
				<path class="st24" d="M396.43,327.8v-1.07l-1.86,0c2.4-1.73,1.87-3.4,0.25-4.51c-2.67-1.69-5.33-1.01-8.12-0.03l-1.7-0.98
					l-2.03-1.17c0.93-0.51,2.02-0.6,2.62-0.62l0.34-1.62v-1.07c0,0-3.73,1.16-5.32,1.94l-3.25-1.16v1.07l1.68,0.97
					c-2.44,1.53-1.87,3.43-0.11,4.56c2.17,1.29,4.68,1.4,7.67,0.33l0.57-0.2l3.34,1.93l0.06,0.03c-1.04,0.59-2.82,1.38-3.9,1.36
					v1.07c1.76,0.2,3.88,0.35,6.38-0.99l1.83,1.06L396.43,327.8z M392.29,323.24c0.33,0.19,0.55,0.44,0.65,0.72
					c0.15,0.43-0.16,0.91-0.8,1.35l-3.19-1.84C389.92,323.07,391.48,322.74,392.29,323.24z M384.17,323.24
					c-1.06,0.3-1.97,0.29-2.82-0.24c-0.66-0.38-0.88-1-0.56-1.62c0,0,0.21-0.32,0.56-0.52l3.6,2.08L384.17,323.24z"/>
				<polygon class="st24" points="396.21,323.24 396.21,324.32 394.72,324.18 394.72,323.32 				"/>
				<polygon class="st24" points="377.42,320.78 377.42,321.86 378.93,321.72 378.93,320.86 				"/>
				<path class="st25" d="M396.43,326.73l-1.86-1.07c2.4-1.73,1.87-3.4,0.25-4.51c-2.67-1.69-5.33-1.01-8.12-0.03l-1.7-0.98
					l-2.03-1.17c0.93-0.51,2.02-0.6,2.62-0.62l0.34-1.62c-2.23-0.18-3.7,0.07-5.32,0.87l-1.7-0.98l-1.54,0.89l1.68,0.97
					c-2.44,1.53-1.87,3.43-0.11,4.56c2.17,1.29,4.68,1.4,7.67,0.33l0.57-0.2l3.34,1.93l0.06,0.03c-1.04,0.59-2.27,0.7-3.35,0.67
					l-0.55,1.75c1.76,0.2,3.88,0.35,6.38-0.99l1.83,1.06L396.43,326.73z M392.29,322.17c0.33,0.19,0.55,0.44,0.65,0.72
					c0.15,0.43-0.16,0.91-0.8,1.35l-3.19-1.84C389.92,322,391.48,321.67,392.29,322.17z M384.17,322.17
					c-1.06,0.3-1.97,0.29-2.82-0.24c-0.66-0.38-0.88-1-0.56-1.62c0,0,0.21-0.32,0.56-0.52l3.6,2.08L384.17,322.17z"/>
			</g>
			<g>
				<g>
					<path class="st24" d="M399.97,313.5c-7.16-4.13-18.74-4.16-25.85-0.05c-7.12,4.11-7.08,10.79,0.08,14.93
						c7.16,4.13,18.74,4.16,25.85,0.05C407.17,324.32,407.13,317.64,399.97,313.5z"/>
					<polygon class="st24" points="368.8,320.81 368.8,317.54 405.36,317.69 405.36,321.04 					"/>
					<path class="st24" d="M396.71,311.98c-5.35-3.09-14.01-3.11-19.33-0.04c-5.32,3.07-5.29,8.07,0.06,11.16
						c5.35,3.09,14.01,3.11,19.33,0.03C402.1,320.07,402.07,315.07,396.71,311.98z"/>
					<path class="st25" d="M399.97,310.11c-7.16-4.13-18.74-4.16-25.85-0.05c-7.12,4.11-7.08,10.79,0.08,14.93
						c7.16,4.13,18.74,4.16,25.85,0.05C407.17,320.92,407.13,314.24,399.97,310.11z M377.45,323.11c-5.35-3.09-5.38-8.09-0.06-11.16
						c5.32-3.07,13.97-3.06,19.33,0.04c5.35,3.09,5.38,8.09,0.06,11.16C391.46,326.21,382.8,326.2,377.45,323.11z"/>
					<path class="st26" d="M396.71,313.04c-5.35-3.09-14.01-3.11-19.33-0.04c-5.32,3.07-5.29,8.07,0.06,11.16
						c5.35,3.09,14.01,3.11,19.33,0.03C402.1,321.13,402.07,316.13,396.71,313.04z"/>
				</g>
				<path class="st24" d="M396.43,323.71v-1.07l-1.86,0c2.4-1.73,1.87-3.4,0.25-4.51c-2.67-1.69-5.33-1.01-8.12-0.03l-1.7-0.98
					l-2.03-1.17c0.93-0.51,2.02-0.6,2.62-0.62l0.34-1.62v-1.07c0,0-3.73,1.16-5.32,1.94l-3.25-1.16v1.07l1.68,0.97
					c-2.44,1.53-1.87,3.43-0.11,4.56c2.17,1.29,4.68,1.4,7.67,0.33l0.57-0.2l3.34,1.93l0.06,0.03c-1.04,0.59-2.82,1.38-3.9,1.36
					v1.07c1.76,0.2,3.88,0.35,6.38-0.99l1.83,1.06L396.43,323.71z M392.29,319.16c0.33,0.19,0.55,0.44,0.65,0.72
					c0.15,0.43-0.16,0.91-0.8,1.35l-3.19-1.84C389.92,318.99,391.48,318.66,392.29,319.16z M384.17,319.16
					c-1.06,0.3-1.97,0.29-2.82-0.24c-0.66-0.38-0.88-1-0.56-1.62c0,0,0.21-0.32,0.56-0.52l3.6,2.08L384.17,319.16z"/>
				<polygon class="st24" points="396.21,319.16 396.21,320.24 394.72,320.1 394.72,319.24 				"/>
				<polygon class="st24" points="377.42,316.7 377.42,317.77 378.93,317.63 378.93,316.78 				"/>
				<path class="st25" d="M396.43,322.65l-1.86-1.07c2.4-1.73,1.87-3.4,0.25-4.51c-2.67-1.69-5.33-1.01-8.12-0.03l-1.7-0.98
					l-2.03-1.17c0.93-0.51,2.02-0.6,2.62-0.62l0.34-1.62c-2.23-0.18-3.7,0.07-5.32,0.87l-1.7-0.98l-1.54,0.89l1.68,0.97
					c-2.44,1.53-1.87,3.43-0.11,4.56c2.17,1.29,4.68,1.4,7.67,0.33l0.57-0.2l3.34,1.93l0.06,0.03c-1.04,0.59-2.27,0.7-3.35,0.67
					l-0.55,1.75c1.76,0.2,3.88,0.35,6.38-0.99l1.83,1.06L396.43,322.65z M392.29,318.09c0.33,0.19,0.55,0.44,0.65,0.72
					c0.15,0.43-0.16,0.91-0.8,1.35l-3.19-1.84C389.92,317.92,391.48,317.59,392.29,318.09z M384.17,318.09
					c-1.06,0.3-1.97,0.29-2.82-0.24c-0.66-0.38-0.88-1-0.56-1.62c0,0,0.21-0.32,0.56-0.52l3.6,2.08L384.17,318.09z"/>
			</g>
			<g>
				<g>
					<path class="st24" d="M399.97,309.42c-7.16-4.13-18.74-4.16-25.85-0.05c-7.12,4.11-7.08,10.79,0.08,14.93
						c7.16,4.13,18.74,4.16,25.85,0.05C407.17,320.24,407.13,313.56,399.97,309.42z"/>
					<polygon class="st24" points="368.8,316.73 368.8,313.46 405.36,313.61 405.36,316.96 					"/>
					<path class="st24" d="M396.71,307.9c-5.35-3.09-14.01-3.11-19.33-0.04c-5.32,3.07-5.29,8.07,0.06,11.16
						c5.35,3.09,14.01,3.11,19.33,0.03C402.1,315.99,402.07,310.99,396.71,307.9z"/>
					<path class="st25" d="M399.97,306.02c-7.16-4.13-18.74-4.16-25.85-0.05c-7.12,4.11-7.08,10.79,0.08,14.93
						c7.16,4.13,18.74,4.16,25.85,0.05C407.17,316.84,407.13,310.16,399.97,306.02z M377.45,319.03c-5.35-3.09-5.38-8.09-0.06-11.16
						c5.32-3.07,13.97-3.06,19.33,0.04c5.35,3.09,5.38,8.09,0.06,11.16C391.46,322.13,382.8,322.12,377.45,319.03z"/>
					<path class="st26" d="M396.71,308.96c-5.35-3.09-14.01-3.11-19.33-0.04c-5.32,3.07-5.29,8.07,0.06,11.16
						c5.35,3.09,14.01,3.11,19.33,0.03C402.1,317.05,402.07,312.05,396.71,308.96z"/>
				</g>
				<path class="st24" d="M396.43,319.63v-1.07l-1.86,0c2.4-1.73,1.87-3.4,0.25-4.51c-2.67-1.69-5.33-1.01-8.12-0.03l-1.7-0.98
					l-2.03-1.17c0.93-0.51,2.02-0.6,2.62-0.62l0.34-1.62v-1.07c0,0-3.73,1.16-5.32,1.94l-3.25-1.16v1.07l1.68,0.97
					c-2.44,1.53-1.87,3.43-0.11,4.56c2.17,1.29,4.68,1.4,7.67,0.33l0.57-0.2l3.34,1.93l0.06,0.03c-1.04,0.59-2.82,1.38-3.9,1.36
					v1.07c1.76,0.2,3.88,0.35,6.38-0.99l1.83,1.06L396.43,319.63z M392.29,315.08c0.33,0.19,0.55,0.44,0.65,0.72
					c0.15,0.43-0.16,0.91-0.8,1.35l-3.19-1.84C389.92,314.91,391.48,314.58,392.29,315.08z M384.17,315.08
					c-1.06,0.3-1.97,0.29-2.82-0.24c-0.66-0.38-0.88-1-0.56-1.62c0,0,0.21-0.32,0.56-0.52l3.6,2.08L384.17,315.08z"/>
				<polygon class="st24" points="396.21,315.08 396.21,316.16 394.72,316.02 394.72,315.16 				"/>
				<polygon class="st24" points="377.42,312.62 377.42,313.69 378.93,313.55 378.93,312.7 				"/>
				<path class="st25" d="M396.43,318.57l-1.86-1.07c2.4-1.73,1.87-3.4,0.25-4.51c-2.67-1.69-5.33-1.01-8.12-0.03l-1.7-0.98
					l-2.03-1.17c0.93-0.51,2.02-0.6,2.62-0.62l0.34-1.62c-2.23-0.18-3.7,0.07-5.32,0.87l-1.7-0.98l-1.54,0.89l1.68,0.97
					c-2.44,1.53-1.87,3.43-0.11,4.56c2.17,1.29,4.68,1.4,7.67,0.33l0.57-0.2l3.34,1.93l0.06,0.03c-1.04,0.59-2.27,0.7-3.35,0.67
					l-0.55,1.75c1.76,0.2,3.88,0.35,6.38-0.99l1.83,1.06L396.43,318.57z M392.29,314.01c0.33,0.19,0.55,0.44,0.65,0.72
					c0.15,0.43-0.16,0.91-0.8,1.35l-3.19-1.84C389.92,313.84,391.48,313.51,392.29,314.01z M384.17,314.01
					c-1.06,0.3-1.97,0.29-2.82-0.24c-0.66-0.38-0.88-1-0.56-1.62c0,0,0.21-0.32,0.56-0.52l3.6,2.08L384.17,314.01z"/>
			</g>
			<g>
				<g>
					<path class="st24" d="M399.97,305.34c-7.16-4.13-18.74-4.16-25.85-0.05c-7.12,4.11-7.08,10.79,0.08,14.93
						c7.16,4.13,18.74,4.16,25.85,0.05C407.17,316.16,407.13,309.48,399.97,305.34z"/>
					<polygon class="st24" points="368.8,312.64 368.8,309.38 405.36,309.53 405.36,312.88 					"/>
					<path class="st24" d="M396.71,303.82c-5.35-3.09-14.01-3.11-19.33-0.04c-5.32,3.07-5.29,8.07,0.06,11.16
						c5.35,3.09,14.01,3.11,19.33,0.03C402.1,311.91,402.07,306.91,396.71,303.82z"/>
					<path class="st25" d="M399.97,301.94c-7.16-4.13-18.74-4.16-25.85-0.05c-7.12,4.11-7.08,10.79,0.08,14.93
						c7.16,4.13,18.74,4.16,25.85,0.05C407.17,312.76,407.13,306.08,399.97,301.94z M377.45,314.95c-5.35-3.09-5.38-8.09-0.06-11.16
						c5.32-3.07,13.97-3.06,19.33,0.04c5.35,3.09,5.38,8.09,0.06,11.16C391.46,318.05,382.8,318.04,377.45,314.95z"/>
					<path class="st26" d="M396.71,304.88c-5.35-3.09-14.01-3.11-19.33-0.04c-5.32,3.07-5.29,8.07,0.06,11.16
						c5.35,3.09,14.01,3.11,19.33,0.03C402.1,312.96,402.07,307.97,396.71,304.88z"/>
				</g>
				<path class="st24" d="M396.43,315.55v-1.07l-1.86,0c2.4-1.73,1.87-3.4,0.25-4.51c-2.67-1.69-5.33-1.01-8.12-0.03l-1.7-0.98
					l-2.03-1.17c0.93-0.51,2.02-0.6,2.62-0.62l0.34-1.62v-1.07c0,0-3.73,1.16-5.32,1.94l-3.25-1.16v1.07l1.68,0.97
					c-2.44,1.53-1.87,3.43-0.11,4.56c2.17,1.29,4.68,1.4,7.67,0.33l0.57-0.2l3.34,1.93l0.06,0.03c-1.04,0.59-2.82,1.38-3.9,1.36
					v1.07c1.76,0.2,3.88,0.35,6.38-0.99l1.83,1.06L396.43,315.55z M392.29,311c0.33,0.19,0.55,0.44,0.65,0.72
					c0.15,0.43-0.16,0.91-0.8,1.35l-3.19-1.84C389.92,310.83,391.48,310.5,392.29,311z M384.17,310.99
					c-1.06,0.3-1.97,0.29-2.82-0.24c-0.66-0.38-0.88-1-0.56-1.62c0,0,0.21-0.32,0.56-0.52l3.6,2.08L384.17,310.99z"/>
				<polygon class="st24" points="396.21,311 396.21,312.08 394.72,311.94 394.72,311.08 				"/>
				<polygon class="st24" points="377.42,308.53 377.42,309.61 378.93,309.47 378.93,308.62 				"/>
				<path class="st25" d="M396.43,314.48l-1.86-1.07c2.4-1.73,1.87-3.4,0.25-4.51c-2.67-1.69-5.33-1.01-8.12-0.03l-1.7-0.98
					l-2.03-1.17c0.93-0.51,2.02-0.6,2.62-0.62l0.34-1.62c-2.23-0.18-3.7,0.07-5.32,0.87l-1.7-0.98l-1.54,0.89l1.68,0.97
					c-2.44,1.53-1.87,3.43-0.11,4.56c2.17,1.29,4.68,1.4,7.67,0.33l0.57-0.2l3.34,1.93l0.06,0.03c-1.04,0.59-2.27,0.7-3.35,0.67
					l-0.55,1.75c1.76,0.2,3.88,0.35,6.38-0.99l1.83,1.06L396.43,314.48z M392.29,309.93c0.33,0.19,0.55,0.44,0.65,0.72
					c0.15,0.43-0.16,0.91-0.8,1.35l-3.19-1.84C389.92,309.76,391.48,309.43,392.29,309.93z M384.17,309.93
					c-1.06,0.3-1.97,0.29-2.82-0.24c-0.66-0.38-0.88-1-0.56-1.62c0,0,0.21-0.32,0.56-0.52l3.6,2.08L384.17,309.93z"/>
			</g>
			<g>
				<g>
					<path class="st24" d="M399.97,301.26c-7.16-4.13-18.74-4.16-25.85-0.05c-7.12,4.11-7.08,10.79,0.08,14.93
						c7.16,4.13,18.74,4.16,25.85,0.05C407.17,312.08,407.13,305.4,399.97,301.26z"/>
					<polygon class="st24" points="368.8,308.56 368.8,305.3 405.36,305.45 405.36,308.8 					"/>
					<path class="st24" d="M396.71,299.74c-5.35-3.09-14.01-3.11-19.33-0.04c-5.32,3.07-5.29,8.07,0.06,11.16
						c5.35,3.09,14.01,3.11,19.33,0.03C402.1,307.83,402.07,302.83,396.71,299.74z"/>
					<path class="st25" d="M399.97,297.86c-7.16-4.13-18.74-4.16-25.85-0.05c-7.12,4.11-7.08,10.79,0.08,14.93
						c7.16,4.13,18.74,4.16,25.85,0.05C407.17,308.68,407.13,302,399.97,297.86z M377.45,310.86c-5.35-3.09-5.38-8.09-0.06-11.16
						c5.32-3.07,13.97-3.06,19.33,0.04c5.35,3.09,5.38,8.09,0.06,11.16C391.46,313.97,382.8,313.96,377.45,310.86z"/>
					<path class="st26" d="M396.71,300.8c-5.35-3.09-14.01-3.11-19.33-0.04c-5.32,3.07-5.29,8.07,0.06,11.16
						c5.35,3.09,14.01,3.11,19.33,0.03C402.1,308.88,402.07,303.89,396.71,300.8z"/>
				</g>
				<path class="st24" d="M396.43,311.47v-1.07l-1.86,0c2.4-1.73,1.87-3.4,0.25-4.51c-2.67-1.69-5.33-1.01-8.12-0.03l-1.7-0.98
					l-2.03-1.17c0.93-0.51,2.02-0.6,2.62-0.62l0.34-1.62v-1.07c0,0-3.73,1.16-5.32,1.94l-3.25-1.16v1.07l1.68,0.97
					c-2.44,1.53-1.87,3.43-0.11,4.56c2.17,1.29,4.68,1.4,7.67,0.33l0.57-0.2l3.34,1.93l0.06,0.03c-1.04,0.59-2.82,1.38-3.9,1.36
					v1.07c1.76,0.2,3.88,0.35,6.38-0.99l1.83,1.06L396.43,311.47z M392.29,306.92c0.33,0.19,0.55,0.44,0.65,0.72
					c0.15,0.43-0.16,0.91-0.8,1.35l-3.19-1.84C389.92,306.75,391.48,306.42,392.29,306.92z M384.17,306.91
					c-1.06,0.3-1.97,0.29-2.82-0.24c-0.66-0.38-0.88-1-0.56-1.62c0,0,0.21-0.32,0.56-0.52l3.6,2.08L384.17,306.91z"/>
				<polygon class="st24" points="396.21,306.92 396.21,308 394.72,307.86 394.72,307 				"/>
				<polygon class="st24" points="377.42,304.45 377.42,305.53 378.93,305.39 378.93,304.54 				"/>
				<path class="st25" d="M396.43,310.4l-1.86-1.07c2.4-1.73,1.87-3.4,0.25-4.51c-2.67-1.69-5.33-1.01-8.12-0.03l-1.7-0.98
					l-2.03-1.17c0.93-0.51,2.02-0.6,2.62-0.62l0.34-1.62c-2.23-0.18-3.7,0.07-5.32,0.87l-1.7-0.98l-1.54,0.89l1.68,0.97
					c-2.44,1.53-1.87,3.43-0.11,4.56c2.17,1.29,4.68,1.4,7.67,0.33l0.57-0.2l3.34,1.93l0.06,0.03c-1.04,0.59-2.27,0.7-3.35,0.67
					l-0.55,1.75c1.76,0.2,3.88,0.35,6.38-0.99l1.83,1.06L396.43,310.4z M392.29,305.85c0.33,0.19,0.55,0.44,0.65,0.72
					c0.15,0.43-0.16,0.91-0.8,1.35l-3.19-1.84C389.92,305.68,391.48,305.35,392.29,305.85z M384.17,305.85
					c-1.06,0.3-1.97,0.29-2.82-0.24c-0.66-0.38-0.88-1-0.56-1.62c0,0,0.21-0.32,0.56-0.52l3.6,2.08L384.17,305.85z"/>
			</g>
			<g>
				<g>
					<path class="st24" d="M399.97,297.18c-7.16-4.13-18.74-4.16-25.85-0.05c-7.12,4.11-7.08,10.79,0.08,14.93
						c7.16,4.13,18.74,4.16,25.85,0.05C407.17,308,407.13,301.32,399.97,297.18z"/>
					<polygon class="st24" points="368.8,304.48 368.8,301.22 405.36,301.37 405.36,304.72 					"/>
					<path class="st24" d="M396.71,295.66c-5.35-3.09-14.01-3.11-19.33-0.04c-5.32,3.07-5.29,8.07,0.06,11.16
						c5.35,3.09,14.01,3.11,19.33,0.03C402.1,303.75,402.07,298.75,396.71,295.66z"/>
					<path class="st25" d="M399.97,293.78c-7.16-4.13-18.74-4.16-25.85-0.05c-7.12,4.11-7.08,10.79,0.08,14.93
						c7.16,4.13,18.74,4.16,25.85,0.05C407.17,304.6,407.13,297.92,399.97,293.78z M377.45,306.78c-5.35-3.09-5.38-8.09-0.06-11.16
						c5.32-3.07,13.97-3.06,19.33,0.04c5.35,3.09,5.38,8.09,0.06,11.16C391.46,309.89,382.8,309.88,377.45,306.78z"/>
					<path class="st26" d="M396.71,296.72c-5.35-3.09-14.01-3.11-19.33-0.04c-5.32,3.07-5.29,8.07,0.06,11.16
						c5.35,3.09,14.01,3.11,19.33,0.03C402.1,304.8,402.07,299.81,396.71,296.72z"/>
				</g>
				<path class="st24" d="M396.43,307.39v-1.07l-1.86,0c2.4-1.73,1.87-3.4,0.25-4.51c-2.67-1.69-5.33-1.01-8.12-0.03l-1.7-0.98
					l-2.03-1.17c0.93-0.51,2.02-0.6,2.62-0.62l0.34-1.62v-1.07c0,0-3.73,1.16-5.32,1.94l-3.25-1.16v1.07l1.68,0.97
					c-2.44,1.53-1.87,3.43-0.11,4.56c2.17,1.29,4.68,1.4,7.67,0.33l0.57-0.2l3.34,1.93l0.06,0.03c-1.04,0.59-2.82,1.38-3.9,1.36
					v1.07c1.76,0.2,3.88,0.35,6.38-0.99l1.83,1.06L396.43,307.39z M392.29,302.84c0.33,0.19,0.55,0.44,0.65,0.72
					c0.15,0.43-0.16,0.91-0.8,1.35l-3.19-1.84C389.92,302.66,391.48,302.34,392.29,302.84z M384.17,302.83
					c-1.06,0.3-1.97,0.29-2.82-0.24c-0.66-0.38-0.88-1-0.56-1.62c0,0,0.21-0.32,0.56-0.52l3.6,2.08L384.17,302.83z"/>
				<polygon class="st24" points="396.21,302.84 396.21,303.92 394.72,303.77 394.72,302.92 				"/>
				<polygon class="st24" points="377.42,300.37 377.42,301.45 378.93,301.31 378.93,300.46 				"/>
				<path class="st25" d="M396.43,306.32l-1.86-1.07c2.4-1.73,1.87-3.4,0.25-4.51c-2.67-1.69-5.33-1.01-8.12-0.03l-1.7-0.98
					l-2.03-1.17c0.93-0.51,2.02-0.6,2.62-0.62l0.34-1.62c-2.23-0.18-3.7,0.07-5.32,0.87l-1.7-0.98l-1.54,0.89l1.68,0.97
					c-2.44,1.53-1.87,3.43-0.11,4.56c2.17,1.29,4.68,1.4,7.67,0.33l0.57-0.2l3.34,1.93l0.06,0.03c-1.04,0.59-2.27,0.7-3.35,0.67
					l-0.55,1.75c1.76,0.2,3.88,0.35,6.38-0.99l1.83,1.06L396.43,306.32z M392.29,301.77c0.33,0.19,0.55,0.44,0.65,0.72
					c0.15,0.43-0.16,0.91-0.8,1.35l-3.19-1.84C389.92,301.6,391.48,301.27,392.29,301.77z M384.17,301.77
					c-1.06,0.3-1.97,0.29-2.82-0.24c-0.66-0.38-0.88-1-0.56-1.62c0,0,0.21-0.32,0.56-0.52l3.6,2.08L384.17,301.77z"/>
			</g>
		</g>
	</g>
	<g>
		<path class="st2" d="M76,343.64c-7.7-4.44-20.13-4.47-27.78-0.05c-7.65,4.42-7.61,11.6,0.09,16.04c3.83,2.21,8.84,3.33,13.85,3.35
			c5.05,0.02,11.44-0.82,11.44-0.82S83.69,348.08,76,343.64z"/>
		<g>
			<g>
				<g>
					<path class="st24" d="M83.92,342.99c-7.7-4.44-20.13-4.47-27.78-0.05c-7.65,4.42-7.61,11.6,0.09,16.04
						c7.7,4.44,20.13,4.47,27.78,0.05C91.65,354.61,91.61,347.43,83.92,342.99z"/>
					<polygon class="st24" points="50.42,350.84 50.42,347.33 89.71,347.49 89.71,351.09 					"/>
					<path class="st24" d="M80.42,341.36c-5.75-3.32-15.05-3.34-20.77-0.04c-5.72,3.3-5.69,8.67,0.06,11.99
						c5.75,3.32,15.05,3.34,20.77,0.04C86.2,350.05,86.17,344.68,80.42,341.36z"/>
					<path class="st25" d="M83.92,339.34c-7.7-4.44-20.13-4.47-27.78-0.05c-7.65,4.42-7.61,11.6,0.09,16.04
						c7.7,4.44,20.13,4.47,27.78,0.05C91.65,350.96,91.61,343.78,83.92,339.34z M59.72,353.31c-5.75-3.32-5.78-8.69-0.06-11.99
						c5.72-3.3,15.02-3.28,20.77,0.04c5.75,3.32,5.78,8.69,0.06,11.99C74.77,356.65,65.47,356.63,59.72,353.31z"/>
					<path class="st26" d="M80.42,342.49c-5.75-3.32-15.05-3.34-20.77-0.04c-5.72,3.3-5.69,8.67,0.06,11.99
						c5.75,3.32,15.05,3.34,20.77,0.04C86.2,351.18,86.17,345.81,80.42,342.49z"/>
				</g>
				<path class="st24" d="M80.12,353.96v-1.15l-2,0c2.58-1.86,2.01-3.66,0.27-4.85c-2.86-1.81-5.73-1.08-8.72-0.04l-1.83-1.05
					l-2.18-1.26c0.99-0.55,2.17-0.65,2.82-0.66l0.36-1.74v-1.15c0,0-4.01,1.25-5.72,2.09l-3.49-1.25v1.15l1.81,1.04
					c-2.63,1.64-2.01,3.69-0.12,4.9c2.33,1.39,5.03,1.5,8.24,0.36l0.61-0.22l3.59,2.07l0.06,0.03c-1.12,0.63-3.03,1.48-4.19,1.46
					v1.15c1.9,0.22,4.17,0.37,6.86-1.07l1.97,1.14L80.12,353.96z M75.66,349.07c0.35,0.21,0.59,0.47,0.69,0.77
					c0.16,0.47-0.17,0.98-0.86,1.45l-3.43-1.98C73.12,348.88,74.79,348.53,75.66,349.07z M66.93,349.06
					c-1.14,0.32-2.12,0.31-3.03-0.25c-0.71-0.41-0.94-1.07-0.6-1.74c0,0,0.22-0.34,0.6-0.56l3.87,2.23L66.93,349.06z"/>
				<polygon class="st24" points="79.88,349.07 79.88,350.23 78.28,350.07 78.28,349.16 				"/>
				<polygon class="st24" points="59.68,346.42 59.68,347.58 61.31,347.43 61.31,346.51 				"/>
				<path class="st25" d="M80.12,352.81l-2-1.15c2.58-1.86,2.01-3.66,0.27-4.85c-2.86-1.81-5.73-1.09-8.72-0.04l-1.83-1.05
					l-2.18-1.26c0.99-0.55,2.17-0.65,2.82-0.66l0.36-1.74c-2.4-0.19-3.97,0.08-5.72,0.94l-1.83-1.06l-1.66,0.96l1.81,1.04
					c-2.63,1.64-2.01,3.69-0.12,4.9c2.33,1.39,5.03,1.5,8.24,0.36l0.61-0.22l3.59,2.07l0.06,0.03c-1.12,0.63-2.44,0.75-3.6,0.72
					l-0.59,1.88c1.9,0.22,4.17,0.37,6.86-1.07l1.97,1.14L80.12,352.81z M75.66,347.92c0.35,0.21,0.59,0.47,0.69,0.77
					c0.16,0.47-0.17,0.98-0.86,1.45l-3.43-1.98C73.12,347.73,74.79,347.38,75.66,347.92z M66.93,347.91
					c-1.14,0.32-2.12,0.31-3.03-0.25c-0.71-0.41-0.94-1.07-0.6-1.74c0,0,0.22-0.34,0.6-0.56l3.87,2.23L66.93,347.91z"/>
			</g>
			<g>
				<g>
					<path class="st24" d="M83.92,338.61c-7.7-4.44-20.13-4.47-27.78-0.05c-7.65,4.42-7.61,11.6,0.09,16.04
						c7.7,4.44,20.13,4.47,27.78,0.05C91.65,350.23,91.61,343.05,83.92,338.61z"/>
					<polygon class="st24" points="50.42,346.45 50.42,342.95 89.71,343.1 89.71,346.71 					"/>
					<path class="st24" d="M80.42,336.97c-5.75-3.32-15.05-3.34-20.77-0.04c-5.72,3.3-5.69,8.67,0.06,11.99s15.05,3.34,20.77,0.04
						C86.2,345.66,86.17,340.29,80.42,336.97z"/>
					<path class="st25" d="M83.92,334.95c-7.7-4.44-20.13-4.47-27.78-0.05c-7.65,4.42-7.61,11.6,0.09,16.04
						c7.7,4.44,20.13,4.47,27.78,0.05C91.65,346.58,91.61,339.4,83.92,334.95z M59.72,348.92c-5.75-3.32-5.78-8.69-0.06-11.99
						c5.72-3.3,15.02-3.28,20.77,0.04c5.75,3.32,5.78,8.69,0.06,11.99C74.77,352.26,65.47,352.24,59.72,348.92z"/>
					<path class="st26" d="M80.42,338.11c-5.75-3.32-15.05-3.34-20.77-0.04c-5.72,3.3-5.69,8.67,0.06,11.99
						c5.75,3.32,15.05,3.34,20.77,0.04C86.2,346.79,86.17,341.43,80.42,338.11z"/>
				</g>
				<path class="st24" d="M80.12,349.58v-1.15l-2,0c2.58-1.86,2.01-3.66,0.27-4.85c-2.86-1.81-5.73-1.08-8.72-0.04l-1.83-1.05
					l-2.18-1.26c0.99-0.55,2.17-0.65,2.82-0.66l0.36-1.74v-1.15c0,0-4.01,1.25-5.72,2.09l-3.49-1.25v1.15l1.81,1.04
					c-2.63,1.64-2.01,3.69-0.12,4.9c2.33,1.39,5.03,1.5,8.24,0.36l0.61-0.22l3.59,2.07l0.06,0.03c-1.12,0.63-3.03,1.48-4.19,1.46
					v1.15c1.9,0.22,4.17,0.37,6.86-1.07l1.97,1.14L80.12,349.58z M75.66,344.68c0.35,0.2,0.59,0.47,0.69,0.77
					c0.16,0.47-0.17,0.98-0.86,1.45l-3.43-1.98C73.12,344.5,74.79,344.14,75.66,344.68z M66.93,344.68
					c-1.14,0.32-2.12,0.31-3.03-0.25c-0.71-0.41-0.94-1.07-0.6-1.74c0,0,0.22-0.34,0.6-0.56l3.87,2.23L66.93,344.68z"/>
				<polygon class="st24" points="79.88,344.68 79.88,345.84 78.28,345.69 78.28,344.77 				"/>
				<polygon class="st24" points="59.68,342.03 59.68,343.19 61.31,343.04 61.31,342.13 				"/>
				<path class="st25" d="M80.12,348.43l-2-1.15c2.58-1.86,2.01-3.66,0.27-4.85c-2.86-1.81-5.73-1.08-8.72-0.04l-1.83-1.05
					l-2.18-1.26c0.99-0.55,2.17-0.65,2.82-0.66l0.36-1.74c-2.4-0.19-3.97,0.08-5.72,0.94l-1.83-1.06l-1.66,0.96l1.81,1.04
					c-2.63,1.64-2.01,3.69-0.12,4.9c2.33,1.39,5.03,1.5,8.24,0.36l0.61-0.22l3.59,2.07l0.06,0.03c-1.12,0.63-2.44,0.75-3.6,0.72
					l-0.59,1.88c1.9,0.22,4.17,0.37,6.86-1.07l1.97,1.14L80.12,348.43z M75.66,343.53c0.35,0.2,0.59,0.47,0.69,0.77
					c0.16,0.47-0.17,0.98-0.86,1.45l-3.43-1.98C73.12,343.35,74.79,342.99,75.66,343.53z M66.93,343.53
					c-1.14,0.32-2.12,0.31-3.03-0.25c-0.71-0.41-0.94-1.07-0.6-1.74c0,0,0.22-0.34,0.6-0.56l3.87,2.23L66.93,343.53z"/>
			</g>
		</g>
	</g>
	<g>
		<path class="st2" d="M317.9,371.69c-7.7-4.44-20.13-4.47-27.78-0.05c-7.65,4.42-7.61,11.6,0.09,16.04
			c3.93,2.27,9.11,3.39,14.25,3.35c4.91-0.04,13.59-0.28,17.33-2.44C329.43,384.17,325.6,376.13,317.9,371.69z"/>
		<g>
			<g>
				<path class="st24" d="M324.81,371.34c-7.7-4.44-20.13-4.47-27.78-0.05c-7.65,4.42-7.61,11.6,0.09,16.04
					c7.7,4.44,20.13,4.47,27.78,0.05C332.54,382.97,332.5,375.79,324.81,371.34z"/>
				<polygon class="st24" points="291.32,379.19 291.32,375.68 330.6,375.84 330.6,379.44 				"/>
				<path class="st24" d="M321.31,369.71c-5.75-3.32-15.05-3.34-20.77-0.04c-5.72,3.3-5.69,8.67,0.07,11.99
					c5.75,3.32,15.05,3.34,20.77,0.04C327.09,378.4,327.06,373.03,321.31,369.71z"/>
				<path class="st25" d="M324.81,367.69c-7.7-4.44-20.13-4.47-27.78-0.05c-7.65,4.42-7.61,11.6,0.09,16.04
					c7.7,4.44,20.13,4.47,27.78,0.05C332.54,379.31,332.5,372.13,324.81,367.69z M300.61,381.66c-5.75-3.32-5.78-8.69-0.07-11.99
					c5.72-3.3,15.02-3.28,20.77,0.04c5.75,3.32,5.78,8.69,0.06,11.99C315.66,385,306.36,384.98,300.61,381.66z"/>
				<path class="st26" d="M321.31,370.84c-5.75-3.32-15.05-3.34-20.77-0.04c-5.72,3.3-5.69,8.67,0.07,11.99
					c5.75,3.32,15.05,3.34,20.77,0.04C327.09,379.53,327.06,374.16,321.31,370.84z"/>
			</g>
			<path class="st24" d="M321.01,382.31v-1.15l-1.99,0c2.58-1.86,2.01-3.66,0.27-4.85c-2.86-1.81-5.73-1.08-8.72-0.04l-1.83-1.05
				l-2.18-1.26c0.99-0.55,2.17-0.65,2.82-0.66l0.36-1.74v-1.15c0,0-4.01,1.25-5.72,2.09l-3.49-1.25v1.15l1.81,1.04
				c-2.63,1.64-2.01,3.69-0.12,4.9c2.33,1.39,5.03,1.5,8.24,0.36l0.61-0.22l3.59,2.07l0.06,0.03c-1.12,0.63-3.03,1.48-4.19,1.46
				v1.15c1.9,0.22,4.17,0.37,6.86-1.07l1.97,1.14L321.01,382.31z M316.55,377.42c0.35,0.21,0.59,0.47,0.69,0.77
				c0.16,0.47-0.17,0.98-0.86,1.45l-3.43-1.98C314.01,377.23,315.68,376.88,316.55,377.42z M307.83,377.42
				c-1.14,0.32-2.12,0.31-3.03-0.25c-0.71-0.41-0.94-1.07-0.6-1.74c0,0,0.22-0.34,0.6-0.56l3.87,2.23L307.83,377.42z"/>
			<polygon class="st24" points="320.77,377.42 320.77,378.58 319.17,378.43 319.17,377.51 			"/>
			<polygon class="st24" points="300.57,374.77 300.57,375.93 302.2,375.78 302.2,374.86 			"/>
			<path class="st25" d="M321.01,381.17l-1.99-1.15c2.58-1.86,2.01-3.66,0.27-4.85c-2.86-1.81-5.73-1.08-8.72-0.04l-1.83-1.05
				l-2.18-1.26c0.99-0.55,2.17-0.65,2.82-0.66l0.36-1.74c-2.4-0.19-3.97,0.08-5.72,0.94l-1.83-1.06l-1.66,0.96l1.81,1.04
				c-2.63,1.64-2.01,3.69-0.12,4.9c2.33,1.39,5.03,1.5,8.24,0.36l0.61-0.22l3.59,2.07l0.06,0.03c-1.12,0.63-2.44,0.75-3.6,0.72
				l-0.59,1.88c1.9,0.22,4.17,0.37,6.86-1.07l1.97,1.14L321.01,381.17z M316.55,376.27c0.35,0.2,0.59,0.47,0.69,0.77
				c0.16,0.47-0.17,0.98-0.86,1.45l-3.43-1.98C314.01,376.09,315.68,375.73,316.55,376.27z M307.83,376.27
				c-1.14,0.32-2.12,0.31-3.03-0.25c-0.71-0.41-0.94-1.07-0.6-1.74c0,0,0.22-0.34,0.6-0.56l3.87,2.23L307.83,376.27z"/>
		</g>
	</g>
	<g>
		<path class="st2" d="M117.44,403.73c-7.7-4.44-20.13-4.47-27.78-0.05c-7.65,4.42-7.61,11.6,0.09,16.04
			c3.93,2.27,9.11,3.39,14.25,3.35c4.91-0.04,13.59-0.28,17.33-2.44C128.97,416.22,125.13,408.18,117.44,403.73z"/>
		<g>
			<g>
				<path class="st24" d="M124.34,403.39c-7.7-4.44-20.13-4.47-27.78-0.05c-7.65,4.42-7.61,11.6,0.09,16.04
					c7.7,4.44,20.13,4.47,27.78,0.05C132.08,415.01,132.04,407.83,124.34,403.39z"/>
				<polygon class="st24" points="90.85,411.24 90.85,407.73 130.14,407.89 130.14,411.49 				"/>
				<path class="st24" d="M120.85,401.75c-5.75-3.32-15.05-3.34-20.77-0.04c-5.72,3.3-5.69,8.67,0.07,11.99
					c5.75,3.32,15.05,3.34,20.77,0.04C126.63,410.44,126.6,405.08,120.85,401.75z"/>
				<path class="st25" d="M124.34,399.74c-7.7-4.44-20.13-4.47-27.78-0.05c-7.65,4.42-7.61,11.6,0.09,16.04
					c7.7,4.44,20.13,4.47,27.78,0.05C132.08,411.36,132.04,404.18,124.34,399.74z M100.14,413.71c-5.75-3.32-5.78-8.69-0.07-11.99
					c5.72-3.3,15.02-3.28,20.77,0.04c5.75,3.32,5.78,8.69,0.06,11.99C115.19,417.05,105.9,417.03,100.14,413.71z"/>
				<path class="st26" d="M120.85,402.89c-5.75-3.32-15.05-3.34-20.77-0.04c-5.72,3.3-5.69,8.67,0.07,11.99
					c5.75,3.32,15.05,3.34,20.77,0.04C126.63,411.58,126.6,406.21,120.85,402.89z"/>
			</g>
			<path class="st24" d="M120.54,414.36v-1.15l-1.99,0c2.58-1.86,2.01-3.66,0.27-4.85c-2.86-1.81-5.73-1.08-8.72-0.04l-1.83-1.05
				l-2.18-1.26c0.99-0.55,2.17-0.65,2.82-0.66l0.36-1.74v-1.15c0,0-4.01,1.25-5.72,2.09l-3.49-1.25v1.15l1.81,1.04
				c-2.63,1.64-2.01,3.69-0.12,4.9c2.33,1.39,5.03,1.5,8.24,0.36l0.61-0.22l3.59,2.07l0.06,0.03c-1.12,0.63-3.03,1.48-4.19,1.46
				v1.15c1.9,0.22,4.17,0.37,6.86-1.07l1.97,1.14L120.54,414.36z M116.09,409.47c0.35,0.2,0.59,0.47,0.69,0.77
				c0.16,0.47-0.17,0.98-0.86,1.45l-3.43-1.98C113.54,409.28,115.22,408.93,116.09,409.47z M107.36,409.46
				c-1.14,0.32-2.12,0.31-3.03-0.25c-0.71-0.41-0.94-1.07-0.6-1.74c0,0,0.22-0.34,0.6-0.56l3.87,2.23L107.36,409.46z"/>
			<polygon class="st24" points="120.31,409.47 120.31,410.63 118.71,410.47 118.71,409.56 			"/>
			<polygon class="st24" points="100.11,406.82 100.11,407.98 101.74,407.83 101.74,406.91 			"/>
			<path class="st25" d="M120.54,413.21l-1.99-1.15c2.58-1.86,2.01-3.66,0.27-4.85c-2.86-1.81-5.73-1.08-8.72-0.04l-1.83-1.05
				l-2.18-1.26c0.99-0.55,2.17-0.65,2.82-0.66l0.36-1.74c-2.4-0.19-3.97,0.08-5.72,0.94l-1.83-1.06l-1.66,0.96l1.81,1.04
				c-2.63,1.64-2.01,3.69-0.12,4.9c2.33,1.39,5.03,1.5,8.24,0.36l0.61-0.22l3.59,2.07l0.06,0.03c-1.12,0.63-2.44,0.75-3.6,0.72
				l-0.59,1.88c1.9,0.22,4.17,0.37,6.86-1.07l1.97,1.14L120.54,413.21z M116.09,408.32c0.35,0.2,0.59,0.47,0.69,0.77
				c0.16,0.47-0.17,0.98-0.86,1.45l-3.43-1.98C113.54,408.13,115.22,407.78,116.09,408.32z M107.36,408.31
				c-1.14,0.32-2.12,0.31-3.03-0.25c-0.71-0.41-0.94-1.07-0.6-1.74c0,0,0.22-0.34,0.6-0.56l3.87,2.23L107.36,408.31z"/>
		</g>
	</g>
	<polygon class="st2" points="235.14,322.66 299.41,359.77 316.3,359.77 350.06,340.27 268.9,303.16 	"/>
	<g>
		<g>
			<g>
				<polygon class="st27" points="258.77,284.17 323.05,321.28 323.05,304.99 258.77,267.88 				"/>
			</g>
			<g>
				<polygon class="st10" points="323.05,304.99 323.05,321.28 356.82,301.79 356.82,285.49 				"/>
			</g>
			<g>
				<polygon class="st11" points="258.77,267.88 323.05,304.99 356.82,285.49 292.54,248.38 				"/>
				<polygon class="st28" points="323.07,300.61 349.23,285.51 292.52,252.76 266.36,267.87 				"/>
				<path class="st11" d="M290.8,266.87c1.61-0.93,1.62-2.43,0.02-3.36c-1.6-0.92-4.2-0.92-5.82,0.01
					c-1.61,0.93-1.62,2.43-0.02,3.36C286.58,267.81,289.19,267.8,290.8,266.87z"/>
				<path class="st11" d="M343.44,288.63l3.98,2.3l9.4-5.43l-9.34-5.39l-4.75,2.74C340.15,284.33,340.48,286.92,343.44,288.63z"/>
				<path class="st11" d="M318.46,296.85l-4.75,2.74l9.34,5.39l9.4-5.43l-3.98-2.3C325.51,295.56,321.03,295.37,318.46,296.85z"/>
				<path class="st11" d="M272.15,264.75l-3.98-2.3l-9.4,5.43l9.34,5.39l4.75-2.74C275.44,269.05,275.11,266.46,272.15,264.75z"/>
				<path class="st11" d="M297.13,256.52l4.75-2.74l-9.34-5.39l-9.4,5.43l3.98,2.3C290.08,257.82,294.56,258,297.13,256.52z"/>
				<path class="st11" d="M295.91,283.55c5.42,3.13,13.61,3.47,18.3,0.76l6.79-3.92c4.69-2.71,4.1-7.44-1.31-10.56
					c-5.42-3.13-13.61-3.47-18.3-0.76l-6.79,3.92C289.9,275.69,290.49,280.42,295.91,283.55z"/>
				<path class="st11" d="M324.79,286.5c-1.61,0.93-1.62,2.43-0.02,3.36c1.6,0.92,4.2,0.92,5.82-0.01c1.61-0.93,1.62-2.43,0.02-3.36
					C329.01,285.57,326.4,285.57,324.79,286.5z"/>
				<g>
					<path class="st28" d="M296.45,282.17l2.21-1.27c-2.86-2.06-2.22-4.05-0.29-5.36c3.17-2,6.34-1.2,9.65-0.04l4.43-2.56
						c-1.1-0.61-2.41-0.72-3.12-0.73l-0.4-1.93c2.67-0.21,4.42,0.09,6.37,1.06l1.99-1.19l1.84,1.06l-2,1.16
						c2.91,1.81,2.23,4.08,0.13,5.43c-2.58,1.53-5.57,1.66-9.12,0.39l-0.68-0.24l-3.96,2.29l-0.08,0.04c1.24,0.7,2.7,0.83,3.98,0.8
						l0.66,2.08c-2.1,0.24-4.61,0.41-7.59-1.18l0.14-0.08l-2.31,1.33L296.45,282.17z M305.54,277.09c-1.14-0.51-3.14-0.97-4.16-0.34
						c-0.39,0.23-0.65,0.52-0.77,0.86c-0.19,0.55,0.23,1.15,1.1,1.7L305.54,277.09z M314.2,273.83l-4.3,2.48l1.13,0.43
						c1.26,0.35,2.34,0.35,3.36-0.28c0.79-0.45,1.04-1.19,0.67-1.92C315.07,274.54,314.74,274.04,314.2,273.83z"/>
					<polygon class="st28" points="296.45,282.17 298.29,283.23 319.12,271.2 317.29,270.14 					"/>
				</g>
			</g>
		</g>
		<g>
			<g>
				<polygon class="st29" points="294.45,288.48 328.21,268.98 314.51,261.07 280.74,280.56 				"/>
				<polygon class="st30" points="292.98,287.63 326.75,268.13 315.97,261.91 282.21,281.41 				"/>
				<polygon class="st29" points="290.87,286.41 324.64,266.92 318.08,263.13 284.32,282.63 				"/>
			</g>
			<g>
				<polygon class="st31" points="294.45,288.48 294.45,304.77 280.74,296.86 280.74,280.56 				"/>
				<polygon class="st32" points="292.98,287.63 292.98,303.92 282.21,297.7 282.21,281.41 				"/>
				<polygon class="st31" points="290.87,286.41 290.87,302.7 284.32,298.92 284.32,282.63 				"/>
			</g>
		</g>
	</g>
	<g>
		<g>
			<g>
				<polygon class="st27" points="258.77,267.22 323.05,304.33 323.05,288.04 258.77,250.93 				"/>
			</g>
			<g>
				<polygon class="st10" points="323.05,288.04 323.05,304.33 356.82,284.83 356.82,268.54 				"/>
			</g>
			<g>
				<polygon class="st11" points="258.77,250.93 323.05,288.04 356.82,268.54 292.54,231.43 				"/>
				<polygon class="st28" points="323.07,283.66 349.23,268.55 292.52,235.81 266.36,250.91 				"/>
				<path class="st11" d="M290.8,249.92c1.61-0.93,1.62-2.43,0.02-3.36c-1.6-0.92-4.2-0.92-5.82,0.01
					c-1.61,0.93-1.62,2.43-0.02,3.36S289.19,250.85,290.8,249.92z"/>
				<path class="st11" d="M343.44,271.67l3.98,2.3l9.4-5.43l-9.34-5.39l-4.75,2.74C340.15,267.37,340.48,269.96,343.44,271.67z"/>
				<path class="st11" d="M318.46,279.9l-4.75,2.74l9.34,5.39l9.4-5.43l-3.98-2.3C325.51,278.6,321.03,278.42,318.46,279.9z"/>
				<path class="st11" d="M272.15,247.79l-3.98-2.3l-9.4,5.43l9.34,5.39l4.75-2.74C275.44,252.09,275.11,249.5,272.15,247.79z"/>
				<path class="st11" d="M297.13,239.57l4.75-2.74l-9.34-5.39l-9.4,5.43l3.98,2.3C290.08,240.86,294.56,241.05,297.13,239.57z"/>
				<path class="st11" d="M295.91,266.6c5.42,3.13,13.61,3.47,18.3,0.76l6.79-3.92c4.69-2.71,4.1-7.44-1.31-10.56
					c-5.42-3.13-13.61-3.47-18.3-0.76l-6.79,3.92C289.9,258.74,290.49,263.47,295.91,266.6z"/>
				<path class="st11" d="M324.79,269.55c-1.61,0.93-1.62,2.43-0.02,3.36c1.6,0.92,4.2,0.92,5.82-0.01
					c1.61-0.93,1.62-2.43,0.02-3.36C329.01,268.61,326.4,268.62,324.79,269.55z"/>
				<g>
					<path class="st28" d="M319.12,254.24l-2.31,1.33l0.14-0.08c2.76,1.72,2.46,3.17,2.04,4.38l-3.61-0.38
						c0.05-0.74-0.18-1.58-1.39-2.3l-0.08,0.04l-3.96,2.29l0.42,0.39c2.2,2.05,1.97,3.78-0.68,5.27c-2.33,1.21-6.26,1.6-9.4-0.08
						l-2,1.16l-1.84-1.06l2.06-1.15c-1.67-1.13-2.2-2.13-1.83-3.68l3.33,0.23c0.03,0.41,0.21,1.16,1.27,1.8l4.43-2.56
						c-2.01-1.91-3.4-3.74,0.07-5.57c2.28-1.11,5.72-1.48,9.29,0.17l2.21-1.27L319.12,254.24z M312.33,256.22
						c-0.95-0.5-1.99-0.74-2.94-0.63c-0.58,0.07-1.09,0.22-1.48,0.44c-1.09,0.58-0.28,1.74,0.6,2.4L312.33,256.22z M304.08,263.93
						c1.27,0.22,2.54,0.07,3.33-0.39c1.09-0.58,1.1-1.21,0.49-1.94l-0.75-0.65l-4.3,2.48C303.22,263.74,304.08,263.93,304.08,263.93
						z"/>
					<polygon class="st28" points="296.45,265.21 298.29,266.27 319.12,254.24 317.29,253.18 					"/>
				</g>
			</g>
		</g>
		<g>
			<g>
				<polygon class="st33" points="294.45,271.52 328.21,252.03 314.51,244.11 280.74,263.61 				"/>
				<polygon class="st25" points="292.98,270.67 326.75,251.18 315.97,244.96 282.21,264.45 				"/>
				<polygon class="st33" points="290.87,269.46 324.64,249.96 318.08,246.18 284.32,265.67 				"/>
			</g>
			<g>
				<polygon class="st31" points="294.45,271.52 294.45,287.81 280.74,279.9 280.74,263.61 				"/>
				<polygon class="st32" points="292.98,270.67 292.98,286.97 282.21,280.75 282.21,264.45 				"/>
				<polygon class="st31" points="290.87,269.46 290.87,285.75 284.32,281.97 284.32,265.67 				"/>
			</g>
		</g>
	</g>
	<g>
		<g>
			<g>
				<polygon class="st27" points="252.02,322.66 316.3,359.77 316.3,343.47 252.02,306.36 				"/>
			</g>
			<g>
				<polygon class="st10" points="316.3,343.47 316.3,359.77 350.06,340.27 350.06,323.98 				"/>
			</g>
			<g>
				<polygon class="st11" points="252.02,306.36 316.3,343.47 350.06,323.98 285.79,286.87 				"/>
				<polygon class="st28" points="316.32,339.09 342.48,323.99 285.76,291.25 259.61,306.35 				"/>
				<path class="st11" d="M284.04,305.36c1.61-0.93,1.62-2.43,0.02-3.36c-1.6-0.92-4.2-0.92-5.82,0.01
					c-1.61,0.93-1.62,2.43-0.02,3.36C279.83,306.29,282.43,306.29,284.04,305.36z"/>
				<path class="st11" d="M336.68,327.11l3.98,2.3l9.4-5.43l-9.34-5.39l-4.75,2.74C333.4,322.81,333.72,325.4,336.68,327.11z"/>
				<path class="st11" d="M311.71,335.34l-4.75,2.74l9.34,5.39l9.4-5.43l-3.98-2.3C318.76,334.04,314.27,333.85,311.71,335.34z"/>
				<path class="st11" d="M265.4,303.23l-3.98-2.3l-9.4,5.43l9.34,5.39l4.75-2.74C268.68,307.53,268.36,304.94,265.4,303.23z"/>
				<path class="st11" d="M290.37,295.01l4.75-2.74l-9.34-5.39l-9.4,5.43l3.98,2.3C283.33,296.3,287.81,296.49,290.37,295.01z"/>
				<path class="st11" d="M289.15,322.04c5.42,3.13,13.61,3.47,18.3,0.76l6.79-3.92c4.69-2.71,4.1-7.44-1.31-10.56
					c-5.42-3.13-13.61-3.47-18.3-0.76l-6.79,3.92C283.15,314.18,283.74,318.91,289.15,322.04z"/>
				<path class="st11" d="M318.04,324.99c-1.61,0.93-1.62,2.43-0.02,3.36c1.6,0.92,4.2,0.92,5.82-0.01
					c1.61-0.93,1.62-2.43,0.02-3.36C322.25,324.05,319.65,324.06,318.04,324.99z"/>
				<g>
					<path class="st28" d="M312.37,309.68l-2.31,1.33l0.14-0.08c2.76,1.72,2.46,3.17,2.04,4.38l-3.61-0.38
						c0.05-0.74-0.18-1.58-1.39-2.3l-0.08,0.04l-3.96,2.29l0.42,0.39c2.2,2.05,1.97,3.78-0.68,5.27c-2.33,1.21-6.26,1.6-9.4-0.08
						l-2,1.16l-1.84-1.06l2.06-1.15c-1.67-1.13-2.2-2.13-1.83-3.68l3.33,0.23c0.03,0.41,0.21,1.16,1.27,1.8l4.43-2.56
						c-2.01-1.91-3.4-3.74,0.07-5.57c2.28-1.11,5.72-1.48,9.29,0.17l2.21-1.27L312.37,309.68z M305.58,311.66
						c-0.95-0.5-1.99-0.74-2.94-0.63c-0.58,0.07-1.09,0.22-1.48,0.44c-1.09,0.58-0.28,1.74,0.6,2.4L305.58,311.66z M297.33,319.37
						c1.27,0.22,2.54,0.07,3.33-0.39c1.09-0.58,1.1-1.21,0.49-1.94l-0.75-0.65l-4.3,2.48C296.46,319.18,297.33,319.37,297.33,319.37
						z"/>
					<polygon class="st28" points="289.7,320.65 291.53,321.71 312.37,309.68 310.53,308.62 					"/>
				</g>
			</g>
		</g>
	</g>
	<g>
		<g>
			<g>
				<g>
					<g>
						<path class="st3" d="M221.22,39.39c3.49-2.02,6.37-0.38,6.38,3.64l0.64,226.31c0.01,4.01-2.84,8.96-6.34,10.98l-107.84,62.26
							c-3.49,2.02-6.37,0.38-6.38-3.64l-0.64-226.31c-0.01-4.01,2.84-8.96,6.34-10.98L221.22,39.39z"/>
					</g>
					<g>
						<path class="st34" d="M107.23,343.02l-7.54-4.38c-1.29-0.75-2.1-2.34-2.1-4.6l7.54,4.38
							C105.13,340.68,105.93,342.27,107.23,343.02z"/>
					</g>
					<g>
						<path class="st35" d="M111.35,343.44c-0.7,0.02-1.39,0.04-2.09,0.06c-2.43,0.07-4.13-1.8-4.14-5.09l2.56,0.53
							C107.69,341.85,109.2,343.51,111.35,343.44z"/>
					</g>
					<g>
						<path class="st36" d="M217.05,32.56l7.54,4.38c-1.31-0.76-3.12-0.66-5.11,0.49l-7.54-4.38
							C213.93,31.9,215.74,31.8,217.05,32.56z"/>
					</g>
					<g>
						<path class="st35" d="M226.03,38.47c0.33,0.61,0.65,1.23,0.98,1.84c-1.02-1.92-3.24-2.39-5.79-0.92l-1.73-1.96
							C222.37,35.77,224.88,36.3,226.03,38.47z"/>
					</g>
					<g>
						<polygon class="st36" points="111.65,99.69 104.1,95.31 211.94,33.05 219.49,37.43 						"/>
					</g>
					<g>
						<polygon class="st34" points="105.12,338.42 97.58,334.04 96.94,107.72 104.48,112.11 						"/>
					</g>
					<g>
						<polygon class="st35" points="107.68,338.95 105.12,338.42 104.48,112.11 107.04,112.63 						"/>
					</g>
					<g>
						<polygon class="st35" points="113.38,101.65 111.65,99.69 219.49,37.43 221.22,39.39 						"/>
					</g>
					<g>
						
							<linearGradient id="SVGID_00000152956773223120377550000013244260887288090501_" gradientUnits="userSpaceOnUse" x1="99.9615" y1="109.4989" x2="107.1408" y2="97.0641">
							<stop  offset="8.108110e-03" style="stop-color:#9EAFF9"/>
							<stop  offset="0.459" style="stop-color:#E2E9FC"/>
							<stop  offset="1" style="stop-color:#B5CFF4"/>
						</linearGradient>
						<path style="fill:url(#SVGID_00000152956773223120377550000013244260887288090501_);" d="M104.48,112.11l-7.54-4.38
							c-0.01-4.54,3.21-10.13,7.17-12.41l7.54,4.38C107.69,101.98,104.47,107.57,104.48,112.11z"/>
					</g>
					<g>
						<path class="st35" d="M107.04,112.63l-2.56-0.53c-0.01-4.54,3.21-10.13,7.17-12.41l1.73,1.96
							C109.89,103.67,107.03,108.62,107.04,112.63z"/>
					</g>
				</g>
				<g>
					<g>
						<path class="st38" d="M114.41,340.66c-0.7,0.02-1.39,0.04-2.09,0.06c-1.3,0.04-2.21-0.96-2.21-2.72l2.56,0.53
							C112.68,339.9,113.39,340.69,114.41,340.66z"/>
					</g>
					<g>
						<path class="st38" d="M223.86,44.23c0.33,0.61,0.65,1.23,0.98,1.84c-0.48-0.91-1.54-1.14-2.74-0.44l-1.73-1.96
							C221.9,42.78,223.24,43.07,223.86,44.23z"/>
					</g>
					<polygon class="st38" points="222.09,45.63 220.36,43.67 208.4,50.58 208.4,50.59 113.3,105.48 115.04,107.44 211.5,51.77 
						211.49,51.76 					"/>
					<g>
						<path class="st38" d="M112.04,112.65l-2.56-0.53c-0.01-2.43,1.72-5.42,3.83-6.64l1.73,1.96
							C113.38,108.39,112.03,110.74,112.04,112.65z"/>
					</g>
					<g>
						<polygon class="st38" points="112.68,338.52 110.11,338 109.47,112.12 112.04,112.65 						"/>
					</g>
					<g>
						<path class="st39" d="M210.13,52.54l11.96-6.91c1.66-0.96,3.02-0.18,3.02,1.72l0.64,225.88c0.01,1.9-1.35,4.25-3.01,5.2
							L115.7,340.25c-1.65,0.96-3.02,0.18-3.02-1.72l-0.64-225.88c-0.01-1.9,1.35-4.25,3-5.2l11.96-6.91
							C128.2,99.84,208.93,53.23,210.13,52.54z"/>
					</g>
				</g>
			</g>
		</g>
	</g>
	<g>
		<path class="st40" d="M214.02,130.75l-89.5,51.67c-2.51,1.45-5.65-0.36-5.65-3.26v-51.9c0-4.31,2.3-8.3,6.04-10.46l89.5-51.67
			c2.51-1.45,5.65,0.36,5.65,3.26v51.9C220.06,124.6,217.75,128.59,214.02,130.75z"/>
		<g>
			<g>
				<polygon class="st41" points="216.82,77.99 216.82,78.94 121.36,134.05 121.36,133.1 				"/>
				<g>
					<g>
						<polygon class="st41" points="123.24,173.05 122.68,173.38 122.68,132.6 123.24,132.28 						"/>
						<polygon class="st41" points="131.63,168.21 131.07,168.53 131.07,127.76 131.63,127.44 						"/>
						<polygon class="st41" points="140.01,163.37 139.46,163.69 139.46,122.92 140.01,122.6 						"/>
						<polygon class="st41" points="148.4,158.53 147.84,158.85 147.84,118.08 148.4,117.76 						"/>
						<polygon class="st41" points="156.79,153.69 156.23,154.01 156.23,113.24 156.79,112.91 						"/>
						<polygon class="st41" points="165.17,148.84 164.62,149.16 164.62,108.39 165.17,108.07 						"/>
						<polygon class="st41" points="173.56,144 173,144.32 173,103.55 173.56,103.23 						"/>
						<polygon class="st41" points="181.95,139.16 181.39,139.48 181.39,98.71 181.95,98.39 						"/>
						<polygon class="st41" points="190.33,134.32 189.78,134.64 189.78,93.87 190.33,93.54 						"/>
						<polygon class="st41" points="198.72,129.47 198.16,129.8 198.16,89.02 198.72,88.7 						"/>
						<polygon class="st41" points="207.11,124.63 206.55,124.95 206.55,84.18 207.11,83.86 						"/>
						<polygon class="st41" points="215.5,119.79 214.94,120.11 214.94,79.34 215.5,79.02 						"/>
					</g>
				</g>
				<polygon class="st41" points="216.82,118.76 216.82,119.71 121.36,174.82 121.36,173.87 				"/>
			</g>
			<g>
				<g>
					
						<linearGradient id="SVGID_00000082360093262775346650000017327192732728688522_" gradientUnits="userSpaceOnUse" x1="-413.0588" y1="-869.2471" x2="-413.0588" y2="-904.2947" gradientTransform="matrix(0.866 -0.5 0 1.1547 526.7973 943.9787)">
						<stop  offset="0" style="stop-color:#00001F"/>
						<stop  offset="0.9338" style="stop-color:#525EE3"/>
					</linearGradient>
					<polygon style="fill:url(#SVGID_00000082360093262775346650000017327192732728688522_);" points="215.22,102.84 206.83,107.69 
						198.44,89.37 190.06,94.21 181.72,139.5 173.28,126.32 156.51,136 148.12,118.43 139.73,123.27 131.35,161.44 122.96,166.28 
						122.96,172.92 215.22,119.66 					"/>
					<path class="st43" d="M219.59,100.03c0,2.77-1.96,6.15-4.37,7.54c-2.42,1.39-4.37,0.28-4.37-2.49c0-2.77,1.96-6.15,4.37-7.54
						C217.63,96.14,219.59,97.26,219.59,100.03z"/>
					<g>
						<polygon class="st44" points="181.87,140.44 173.03,126.63 156.23,136.33 156.13,136.11 147.85,118.76 140.05,123.26 
							131.66,161.43 122.96,166.46 122.96,165.5 131.03,160.84 139.42,122.67 148.39,117.49 148.5,117.72 156.78,135.06 
							173.53,125.39 181.57,137.95 189.73,93.62 198.72,88.43 207.11,106.75 215.22,102.07 215.22,103.02 206.55,108.02 
							198.17,89.71 190.38,94.2 						"/>
					</g>
					<g>
						<path class="st45" d="M132.71,160.35c0,0.86-0.61,1.91-1.36,2.35c-0.75,0.43-1.36,0.09-1.36-0.78s0.61-1.91,1.36-2.35
							C132.1,159.14,132.71,159.49,132.71,160.35z"/>
						<path class="st46" d="M131.35,163.2c-0.99,0.57-1.8,0.11-1.8-1.02c0-1.14,0.81-2.53,1.8-3.1c0.99-0.57,1.8-0.11,1.8,1.02
							C133.14,161.24,132.34,162.63,131.35,163.2z M131.35,160.07c-0.51,0.29-0.93,1.01-0.93,1.6c0,0.59,0.41,0.82,0.93,0.53
							c0.51-0.29,0.93-1.01,0.93-1.6C132.27,160.02,131.86,159.78,131.35,160.07z"/>
					</g>
					<g>
						<path class="st45" d="M124.32,165.19c0,0.86-0.61,1.91-1.36,2.35c-0.75,0.43-1.36,0.09-1.36-0.78s0.61-1.91,1.36-2.35
							C123.71,163.98,124.32,164.33,124.32,165.19z"/>
						<path class="st46" d="M122.96,168.04c-0.99,0.57-1.8,0.11-1.8-1.02c0-1.14,0.81-2.53,1.8-3.1c0.99-0.57,1.8-0.11,1.8,1.02
							S123.95,167.47,122.96,168.04z M122.96,164.92c-0.51,0.29-0.93,1.01-0.93,1.6c0,0.59,0.42,0.82,0.93,0.53
							c0.51-0.29,0.93-1.01,0.93-1.6C123.89,164.86,123.47,164.62,122.96,164.92z"/>
					</g>
					<g>
						<path class="st45" d="M141.1,122.32c0,0.86-0.61,1.91-1.36,2.35c-0.75,0.43-1.36,0.09-1.36-0.78c0-0.86,0.61-1.91,1.36-2.35
							C140.49,121.11,141.1,121.45,141.1,122.32z"/>
						<path class="st46" d="M139.73,125.16c-0.99,0.57-1.8,0.11-1.8-1.02c0-1.14,0.81-2.53,1.8-3.1c0.99-0.57,1.8-0.11,1.8,1.02
							C141.53,123.2,140.72,124.59,139.73,125.16z M139.73,122.04c-0.51,0.29-0.93,1.01-0.93,1.6c0,0.59,0.42,0.82,0.93,0.53
							c0.51-0.29,0.93-1.01,0.93-1.6C140.66,121.98,140.24,121.75,139.73,122.04z"/>
					</g>
					<g>
						<path class="st45" d="M149.48,117.34c0,0.86-0.61,1.91-1.36,2.35c-0.75,0.43-1.36,0.09-1.36-0.78c0-0.86,0.61-1.91,1.36-2.35
							C148.87,116.13,149.48,116.47,149.48,117.34z"/>
						<path class="st46" d="M148.12,120.18c-0.99,0.57-1.8,0.11-1.8-1.02c0-1.14,0.81-2.53,1.8-3.1c0.99-0.57,1.8-0.11,1.8,1.02
							C149.92,118.22,149.11,119.61,148.12,120.18z M148.12,117.06c-0.51,0.29-0.93,1.01-0.93,1.6c0,0.59,0.42,0.82,0.93,0.53
							c0.51-0.29,0.93-1.01,0.93-1.6C149.05,117,148.63,116.77,148.12,117.06z"/>
					</g>
					<g>
						<path class="st45" d="M174.64,125.23c0,0.86-0.61,1.91-1.36,2.35c-0.75,0.43-1.36,0.09-1.36-0.78c0-0.86,0.61-1.91,1.36-2.35
							C174.03,124.02,174.64,124.37,174.64,125.23z"/>
						<path class="st46" d="M173.28,128.08c-0.99,0.57-1.8,0.11-1.8-1.02c0-1.14,0.81-2.53,1.8-3.1c0.99-0.57,1.8-0.11,1.8,1.02
							C175.08,126.11,174.27,127.5,173.28,128.08z M173.28,124.95c-0.51,0.29-0.93,1.01-0.93,1.6c0,0.59,0.42,0.82,0.93,0.53
							c0.51-0.29,0.93-1.01,0.93-1.6C174.21,124.89,173.79,124.66,173.28,124.95z"/>
					</g>
					<g>
						<path class="st45" d="M166.26,130.07c0,0.86-0.61,1.91-1.36,2.35c-0.75,0.43-1.36,0.09-1.36-0.78c0-0.86,0.61-1.91,1.36-2.35
							C165.65,128.86,166.26,129.21,166.26,130.07z"/>
						<path class="st46" d="M164.9,132.92c-0.99,0.57-1.8,0.11-1.8-1.02c0-1.14,0.81-2.53,1.8-3.1c0.99-0.57,1.8-0.11,1.8,1.02
							S165.89,132.35,164.9,132.92z M164.9,129.79c-0.51,0.29-0.93,1.01-0.93,1.6c0,0.59,0.41,0.82,0.93,0.53
							c0.51-0.29,0.93-1.01,0.93-1.6C165.82,129.74,165.41,129.5,164.9,129.79z"/>
					</g>
					<g>
						<path class="st45" d="M157.87,134.91c0,0.86-0.61,1.91-1.36,2.35c-0.75,0.43-1.36,0.09-1.36-0.78c0-0.86,0.61-1.91,1.36-2.35
							C157.26,133.7,157.87,134.05,157.87,134.91z"/>
						<path class="st46" d="M156.51,137.76c-0.99,0.57-1.8,0.11-1.8-1.02c0-1.14,0.81-2.53,1.8-3.1c0.99-0.57,1.8-0.11,1.8,1.02
							C158.3,135.8,157.5,137.19,156.51,137.76z M156.51,134.64c-0.51,0.29-0.93,1.01-0.93,1.6c0,0.59,0.42,0.82,0.93,0.53
							c0.51-0.29,0.93-1.01,0.93-1.6C157.43,134.58,157.02,134.34,156.51,134.64z"/>
					</g>
					<g>
						<path class="st45" d="M183.08,138.41c0,0.86-0.61,1.91-1.36,2.35c-0.75,0.43-1.36,0.09-1.36-0.78s0.61-1.91,1.36-2.35
							C182.47,137.2,183.08,137.55,183.08,138.41z"/>
						<path class="st46" d="M181.72,141.25c-0.99,0.57-1.8,0.11-1.8-1.02c0-1.14,0.81-2.53,1.8-3.1c0.99-0.57,1.8-0.11,1.8,1.02
							C183.52,139.29,182.71,140.68,181.72,141.25z M181.72,138.13c-0.51,0.29-0.93,1.01-0.93,1.6c0,0.59,0.42,0.82,0.93,0.53
							c0.51-0.29,0.93-1.01,0.93-1.6C182.64,138.07,182.23,137.84,181.72,138.13z"/>
					</g>
					<g>
						<path class="st45" d="M199.8,88.28c0,0.86-0.61,1.91-1.36,2.35c-0.75,0.43-1.36,0.09-1.36-0.78c0-0.86,0.61-1.91,1.36-2.35
							C199.19,87.07,199.8,87.42,199.8,88.28z"/>
						<path class="st46" d="M198.44,91.13c-0.99,0.57-1.8,0.11-1.8-1.02c0-1.14,0.81-2.53,1.8-3.1c0.99-0.57,1.8-0.11,1.8,1.02
							C200.24,89.17,199.43,90.56,198.44,91.13z M198.44,88.01c-0.51,0.29-0.93,1.01-0.93,1.6c0,0.59,0.42,0.82,0.93,0.53
							c0.51-0.29,0.93-1.01,0.93-1.6C199.37,87.95,198.95,87.71,198.44,88.01z"/>
					</g>
					<g>
						<path class="st45" d="M191.42,93.13c0,0.86-0.61,1.91-1.36,2.35c-0.75,0.43-1.36,0.09-1.36-0.78c0-0.86,0.61-1.91,1.36-2.35
							C190.81,91.92,191.42,92.26,191.42,93.13z"/>
						<path class="st46" d="M190.06,95.97c-0.99,0.57-1.8,0.11-1.8-1.02c0-1.14,0.81-2.53,1.8-3.1c0.99-0.57,1.8-0.11,1.8,1.02
							C191.85,94.01,191.05,95.4,190.06,95.97z M190.06,92.85c-0.51,0.29-0.93,1.01-0.93,1.6c0,0.59,0.42,0.82,0.93,0.53
							c0.51-0.29,0.93-1.01,0.93-1.6C190.98,92.79,190.57,92.55,190.06,92.85z"/>
					</g>
					<g>
						<path class="st45" d="M208.19,106.6c0,0.86-0.61,1.91-1.36,2.35c-0.75,0.43-1.36,0.09-1.36-0.78c0-0.86,0.61-1.91,1.36-2.35
							C207.58,105.39,208.19,105.74,208.19,106.6z"/>
						<path class="st46" d="M206.83,109.45c-0.99,0.57-1.8,0.11-1.8-1.02c0-1.14,0.81-2.53,1.8-3.1c0.99-0.57,1.8-0.11,1.8,1.02
							C208.63,107.48,207.82,108.87,206.83,109.45z M206.83,106.32c-0.51,0.29-0.93,1.01-0.93,1.6c0,0.59,0.42,0.82,0.93,0.53
							c0.51-0.29,0.93-1.01,0.93-1.6C207.76,106.26,207.34,106.03,206.83,106.32z"/>
					</g>
					<g>
						<path class="st46" d="M216.58,101.77c0,0.86-0.61,1.91-1.36,2.35c-0.75,0.43-1.36,0.09-1.36-0.78c0-0.86,0.61-1.91,1.36-2.35
							C215.97,100.56,216.58,100.91,216.58,101.77z"/>
						<path class="st46" d="M215.22,104.62c-0.99,0.57-1.8,0.11-1.8-1.02c0-1.14,0.81-2.53,1.8-3.1c0.99-0.57,1.8-0.11,1.8,1.02
							C217.01,102.65,216.21,104.04,215.22,104.62z M215.22,101.49c-0.51,0.29-0.93,1.01-0.93,1.6c0,0.59,0.42,0.82,0.93,0.53
							c0.51-0.29,0.93-1.01,0.93-1.6C216.14,101.43,215.73,101.2,215.22,101.49z"/>
					</g>
				</g>
			</g>
		</g>
	</g>
	<g>
		<path class="st40" d="M214.02,204.47l-89.5,51.67c-2.51,1.45-5.65-0.36-5.65-3.26v-51.9c0-4.31,2.3-8.3,6.04-10.46l89.5-51.67
			c2.51-1.45,5.65,0.36,5.65,3.26v51.9C220.06,198.33,217.75,202.31,214.02,204.47z"/>
		<g>
			<path class="st46" d="M145.41,202.68c4.3-2.15,7.74-0.19,8.04,4.58l11.79-6.81c-0.31-12.23-9.02-17.19-19.83-11.31V202.68z"/>
			<path class="st41" d="M136.6,220.85c-0.29-0.83-0.45-1.8-0.45-2.91c0-5.26,3.56-11.61,8.06-14.57v-13.53
				c-11.01,6.72-19.85,22.18-19.85,34.9c0,2.95,0.48,5.49,1.34,7.59L136.6,220.85z"/>
			<path class="st46" d="M146.82,221.45c-0.64,0.55-1.32,1.03-2.01,1.43c-3.39,1.96-6.33,1.41-7.75-1.02l-10.89,11.49
				c3.21,6.3,10.34,7.85,18.64,3.06c1.9-1.1,3.73-2.46,5.48-4.02L146.82,221.45z"/>
			<path class="st46" d="M153.45,208.64c-0.23,4.05-2.44,8.61-5.48,11.73l3.47,10.94c7.86-7.63,13.55-19.34,13.81-29.48
				L153.45,208.64z"/>
		</g>
		<g>
			<polygon class="st46" points="212.62,160.25 173.46,182.86 173.46,178.93 212.62,156.32 			"/>
			<polygon class="st46" points="212.62,168.52 173.46,191.13 173.46,187.2 212.62,164.59 			"/>
			<g>
				<polygon class="st46" points="212.62,176.79 173.46,199.4 173.46,195.47 212.62,172.86 				"/>
				<polygon class="st46" points="212.62,185.06 173.46,207.67 173.46,203.74 212.62,181.13 				"/>
				<polygon class="st46" points="193.82,204.18 173.46,215.94 173.46,212 193.82,200.25 				"/>
			</g>
		</g>
	</g>
	<g>
		<path class="st40" d="M214.02,278.44l-89.5,51.67c-2.51,1.45-5.65-0.36-5.65-3.26v-51.9c0-4.31,2.3-8.3,6.04-10.46l89.5-51.67
			c2.51-1.45,5.65,0.36,5.65,3.26v51.9C220.06,272.3,217.75,276.28,214.02,278.44z"/>
		<g>
			<polygon class="st47" points="141.07,309.58 133.35,314.04 133.35,276.64 141.07,272.18 			"/>
			<polygon class="st47" points="150.44,304.17 142.72,308.63 142.72,271.23 150.44,266.76 			"/>
			<polygon class="st47" points="169.19,293.35 161.46,297.81 161.46,260.41 169.19,255.94 			"/>
			<polygon class="st47" points="159.82,298.76 152.09,303.22 152.09,265.82 159.82,261.35 			"/>
			<polygon class="st47" points="131.7,314.99 123.97,319.45 123.97,282.05 131.7,277.59 			"/>
			<polygon class="st47" points="131.7,314.99 123.97,319.45 123.97,282.05 131.7,277.59 			"/>
			<polygon class="st46" points="131.7,314.99 123.97,319.45 123.97,310.1 131.7,305.64 			"/>
			<polygon class="st46" points="159.82,298.76 152.09,303.22 152.09,291.2 159.82,286.74 			"/>
			<polygon class="st46" points="141.07,309.58 133.35,314.04 133.35,285.15 141.07,280.69 			"/>
			<polygon class="st46" points="150.44,304.17 142.72,308.63 142.72,288.01 150.44,283.55 			"/>
			<polygon class="st46" points="169.19,293.35 161.46,297.81 161.46,271.09 169.19,266.63 			"/>
		</g>
		<g>
			<polygon class="st47" points="187.93,282.53 180.2,286.99 180.2,249.59 187.93,245.12 			"/>
			<polygon class="st47" points="197.3,277.12 189.57,281.58 189.57,244.18 197.3,239.71 			"/>
			<polygon class="st48" points="216.04,266.3 208.31,270.76 208.31,233.35 216.04,228.89 			"/>
			<polygon class="st47" points="206.67,271.71 198.94,276.17 198.94,238.76 206.67,234.3 			"/>
			<polygon class="st47" points="178.56,287.94 170.83,292.4 170.83,255 178.56,250.53 			"/>
			<polygon class="st47" points="178.56,287.94 170.83,292.4 170.83,255 178.56,250.53 			"/>
			<polygon class="st46" points="178.56,287.94 170.83,292.4 170.83,283.05 178.56,278.59 			"/>
			<polygon class="st46" points="206.67,271.71 198.94,276.17 198.94,246.7 206.67,242.24 			"/>
			<polygon class="st46" points="187.93,282.53 180.2,286.99 180.2,270.59 187.93,266.13 			"/>
			<polygon class="st46" points="197.3,277.12 189.57,281.58 189.57,256.85 197.3,252.39 			"/>
			<polygon class="st46" points="216.04,266.3 208.31,270.76 208.31,233.35 216.04,228.89 			"/>
		</g>
	</g>
	<g>
		<g class="st20">
			<path class="st49" d="M338.5,206.43c-3.36,7.19-10.01,8.34-14.68,7.14c4.88,1.33,10.29-1.63,12.69-7.27
				C337.76,206.6,338.42,206.63,338.5,206.43z"/>
		</g>
		<g class="st20">
			<path class="st49" d="M329.44,189.22c8.09,1.86,12.07,9.42,9.06,17.21c-0.09,0.2-0.75,0.17-1.99-0.13
				c2.69-6.31,0.6-13.59-4.67-16.26C331.06,189.65,330.26,189.37,329.44,189.22z"/>
		</g>
		<g>
			
				<linearGradient id="SVGID_00000016045027659095219710000007550749403435244693_" gradientUnits="userSpaceOnUse" x1="304.3963" y1="210.1808" x2="306.6143" y2="197.6021">
				<stop  offset="0.1351" style="stop-color:#2E3C78"/>
				<stop  offset="0.9967" style="stop-color:#2E3C78"/>
			</linearGradient>
			<path style="fill:url(#SVGID_00000016045027659095219710000007550749403435244693_);" d="M284.92,193.78l51.6,12.53
				c-2.42,5.69-7.9,8.65-12.82,7.23l-48.83-14.08C278.71,200.56,283.01,198.24,284.92,193.78z"/>
		</g>
		<g>
			
				<linearGradient id="SVGID_00000119827920091520345550000000830250872623191743_" gradientUnits="userSpaceOnUse" x1="306.7223" y1="201.049" x2="309.4333" y2="185.6734">
				<stop  offset="0.1351" style="stop-color:#2E3C78"/>
				<stop  offset="0.4385" style="stop-color:#344487"/>
				<stop  offset="0.5943" style="stop-color:#3E51A1"/>
				<stop  offset="0.6204" style="stop-color:#4053A6"/>
				<stop  offset="0.706" style="stop-color:#3E51A2"/>
				<stop  offset="0.795" style="stop-color:#3A4B95"/>
				<stop  offset="0.8611" style="stop-color:#344487"/>
			</linearGradient>
			<path style="fill:url(#SVGID_00000119827920091520345550000000830250872623191743_);" d="M279.27,180.35l50.05,8.84
				c0.86,0.15,1.71,0.43,2.53,0.85c5.27,2.67,7.36,9.95,4.67,16.26l-51.6-12.53c2.11-4.95,0.47-10.67-3.67-12.76
				C280.61,180.69,279.94,180.47,279.27,180.35z"/>
		</g>
		
			<linearGradient id="SVGID_00000001656253195377007450000008799228881396288686_" gradientUnits="userSpaceOnUse" x1="265.3244" y1="201.0432" x2="276.1098" y2="176.8188">
			<stop  offset="0.151" style="stop-color:#8E9EE0"/>
			<stop  offset="0.4378" style="stop-color:#AAB9FA"/>
			<stop  offset="0.4612" style="stop-color:#ADBBFA"/>
			<stop  offset="0.607" style="stop-color:#B7C4FC"/>
			<stop  offset="0.7692" style="stop-color:#BBC7FC"/>
		</linearGradient>
		<path style="fill:url(#SVGID_00000001656253195377007450000008799228881396288686_);" d="M280.26,178.68
			c-0.64-0.32-1.3-0.56-1.96-0.71L263,174.42c0.67,0.15,1.32,0.39,1.96,0.71c5.02,2.54-7.29,6.16-9.85,12.18
			c-2.24,5.25,7.1,11.38,2.53,10.32l15.29,3.55c4.57,1.06,9.54-1.75,11.77-7C287.27,188.15,285.28,181.22,280.26,178.68z"/>
	</g>
	<g>
		
			<linearGradient id="SVGID_00000095297465807629434130000004230770464595470009_" gradientUnits="userSpaceOnUse" x1="203.3764" y1="235.3543" x2="258.3485" y2="140.1398">
			<stop  offset="0.0357" style="stop-color:#9EAFF9"/>
			<stop  offset="0.2308" style="stop-color:#BBC7FC"/>
			<stop  offset="0.368" style="stop-color:#BBC7FC"/>
			<stop  offset="0.3905" style="stop-color:#BBC7FC"/>
			<stop  offset="0.9919" style="stop-color:#BBC7FC"/>
		</linearGradient>
		<path style="fill:url(#SVGID_00000095297465807629434130000004230770464595470009_);" d="M252.65,136.91l-15.79-9.18
			c7,4.07,11.34,12.71,11.37,25c0.07,24.73-17.32,54.86-38.85,67.29c-10.83,6.25-20.65,6.84-27.74,2.72l15.79,9.18
			c7.09,4.12,16.9,3.54,27.74-2.72c21.53-12.43,38.92-42.56,38.85-67.29C263.99,149.63,259.65,140.98,252.65,136.91z"/>
		<path class="st54" d="M220.45,226.48c21.53-12.43,38.92-42.56,38.85-67.29c-0.07-24.74-17.58-34.72-39.11-22.29
			c-21.53,12.43-38.92,42.56-38.85,67.3C181.41,228.93,198.92,238.91,220.45,226.48z"/>
		<path class="st55" d="M244.76,132.73c5.37,4.58,8.6,12.45,8.63,23.05c0.07,24.73-17.32,54.86-38.85,67.29
			c-9.3,5.37-17.85,6.55-24.56,4.17c7.17,6.12,18.16,6.35,30.47-0.76c21.53-12.43,38.92-42.56,38.85-67.29
			C259.26,145.13,253.59,135.85,244.76,132.73z"/>
		<g>
			<g>
				<g class="st20">
					<g class="st20">
						<defs>
							<path id="SVGID_00000046327181653004038660000002750242190449442465_" class="st20" d="M197.43,231.92l-15.79-9.18
								c7.09,4.12,16.9,3.54,27.74-2.72l15.79,9.18C214.34,235.46,204.52,236.04,197.43,231.92z"/>
						</defs>
						<clipPath id="SVGID_00000049221524750104768800000002826129377729185725_">
							<use xlink:href="#SVGID_00000046327181653004038660000002750242190449442465_"  style="overflow:visible;"/>
						</clipPath>
					</g>
					<g class="st20">
						<defs>
							<path id="SVGID_00000014601638853837706090000001133818037738032808_" class="st20" d="M193.39,238.89l-15.79-9.18
								c-8.02-4.66-13-14.57-13.04-28.66c-0.08-28.36,19.86-62.91,44.55-77.16l15.79,9.18c-24.68,14.25-44.63,48.79-44.55,77.16
								C180.39,224.31,185.37,234.22,193.39,238.89z"/>
						</defs>
						<clipPath id="SVGID_00000175281551889738717150000011399981825865461907_">
							<use xlink:href="#SVGID_00000014601638853837706090000001133818037738032808_"  style="overflow:visible;"/>
						</clipPath>
					</g>
					<g>
						<path class="st56" d="M224.9,133.07c24.68-14.25,44.76-2.81,44.84,25.55c0.08,28.36-19.86,62.9-44.55,77.15
							c-24.68,14.25-44.76,2.81-44.84-25.55C180.27,181.86,200.22,147.32,224.9,133.07z M225.17,229.21
							c21.53-12.43,38.92-42.56,38.85-67.29c-0.07-24.74-17.58-34.72-39.11-22.29c-21.53,12.43-38.92,42.56-38.85,67.3
							C186.13,231.66,203.65,241.64,225.17,229.21z"/>
					</g>
				</g>
			</g>
		</g>
		<g>
			
				<linearGradient id="SVGID_00000127018273800906833800000013770635002037927573_" gradientUnits="userSpaceOnUse" x1="169.9152" y1="225.3333" x2="232.9386" y2="116.1736">
				<stop  offset="0" style="stop-color:#9EAFF9"/>
				<stop  offset="0.0157" style="stop-color:#A7B6FA"/>
				<stop  offset="0.0498" style="stop-color:#B2C0FB"/>
				<stop  offset="0.0977" style="stop-color:#B9C5FC"/>
				<stop  offset="0.2308" style="stop-color:#BBC7FC"/>
				<stop  offset="0.468" style="stop-color:#B7C4FC"/>
				<stop  offset="0.6815" style="stop-color:#ADBBFA"/>
				<stop  offset="0.7156" style="stop-color:#AAB9FA"/>
				<stop  offset="0.9919" style="stop-color:#8E9EE0"/>
			</linearGradient>
			<path style="fill:url(#SVGID_00000127018273800906833800000013770635002037927573_);" d="M240.91,120.78
				c-8.13-4.72-19.38-4.06-31.8,3.11c-24.68,14.25-44.63,48.8-44.55,77.16c0.04,14.09,5.01,24,13.04,28.66l15.79,9.18
				c-8.02-4.66-13-14.57-13.04-28.66c-0.08-28.36,19.86-62.91,44.55-77.16c12.42-7.17,23.67-7.84,31.8-3.11L240.91,120.78z"/>
		</g>
		<path class="st58" d="M231.69,146.32c4.52,3.91,3.56,12.44-2.16,19.05c-5.72,6.6-14.01,8.79-18.54,4.87
			c-4.52-3.91-3.56-12.44,2.16-19.05C218.86,144.59,227.16,142.4,231.69,146.32z"/>
	</g>
	<g>
		<g>
			<polygon class="st59" points="301.23,107.91 301.23,159.6 303.08,160.67 369.01,70.92 367.15,69.85 			"/>
			<g>
				<polygon class="st59" points="333.07,53.04 340.1,48.98 365.25,67.49 367.15,69.85 301.23,107.91 303.13,103.36 				"/>
			</g>
			<g>
				<polygon class="st60" points="369.01,70.92 303.08,108.98 304.98,112.31 333.94,124.12 340.97,120.07 367.11,76.45 				"/>
				<g>
					<polygon class="st61" points="334.93,54.11 341.95,50.05 367.11,68.56 369.01,70.92 303.08,108.98 304.98,104.43 					"/>
				</g>
			</g>
		</g>
		<g>
			<path class="st62" d="M333.92,83.58l-8.53,0.54l-6.82,3.94c-0.05,0.03-0.15,0.09-0.15,0.09c-2.67,1.64-4.29,4.55-4.29,7.68v43.29
				l35.35-20.41L333.92,83.58z"/>
			<g>
				<g>
					<polygon class="st63" points="367.11,76.45 340.97,120.07 333.94,124.12 304.98,112.31 303.08,108.98 303.08,160.67 
						369.01,122.61 369.01,70.92 					"/>
					<polygon class="st64" points="333.94,124.13 340.97,120.07 369.01,122.61 303.08,160.67 					"/>
				</g>
			</g>
		</g>
		<path class="st65" d="M326.33,88.04l0.92,0.53c4.57,2.64,7.39,7.52,7.39,12.81v11.44v27.11c0,8.8,3.67,17.08,9.93,22.97
			c0.25,0.24,0.5,0.47,0.76,0.69c1.55,1.37,3.25,2.59,5.08,3.65l16.44,8.71l29.72-17.16l-16.44-8.71
			c-9.76-5.63-15.77-16.04-15.77-27.31V84.21c0-5.28-2.82-10.16-7.39-12.81l-0.92-0.53c-2.42-1.4-5.41-1.37-7.81,0.06l-0.29-0.63
			l-29.66,17.12c0,0,0,0-0.01,0C320.67,86.04,323.92,86.65,326.33,88.04z"/>
		<g>
			<path class="st65" d="M395.89,159.96l-16.1-9.3c-9.94-5.74-16.11-16.43-16.11-27.9V84.21c0-5.02-2.7-9.7-7.05-12.21l-0.92-0.53
				c-2.18-1.26-4.89-1.25-7.07,0.02c-0.04,0.03-0.09,0.05-0.13,0.08c-2.45,1.51-3.97,4.23-3.97,7.1v25.79h-1.37V78.67
				c0-3.35,1.77-6.51,4.62-8.27c0.05-0.03,0.11-0.06,0.16-0.1c2.6-1.52,5.84-1.53,8.44-0.03l0.92,0.53
				c4.77,2.75,7.73,7.89,7.73,13.4v38.55c0,10.99,5.91,21.23,15.43,26.72l16.1,9.3L395.89,159.96z"/>
		</g>
		<path class="st66" d="M361.3,75.2l-28.53,16.47c0.67,0.87,1.24,1.82,1.71,2.82L363,78.03C362.54,77.02,361.97,76.08,361.3,75.2z"
			/>
		<g>
			<path class="st67" d="M366.85,177.51l-16.79-9.69c-9.94-5.74-16.11-16.43-16.11-27.9v-38.55c0-5.02-2.7-9.7-7.05-12.21
				l-0.92-0.53c-2.18-1.26-4.89-1.25-7.07,0.02c-0.05,0.03-0.09,0.05-0.14,0.08c-2.45,1.51-3.97,4.23-3.97,7.1v20.5l-1.37-0.56
				V95.83c0-3.35,1.77-6.51,4.62-8.27c0.05-0.03,0.11-0.07,0.16-0.1c2.6-1.52,5.83-1.53,8.44-0.02l0.92,0.53
				c4.77,2.75,7.73,7.89,7.73,13.4v38.55c0,10.99,5.91,21.23,15.43,26.72l16.1,9.3V177.51z"/>
		</g>
		<polygon class="st67" points="396.57,160.35 366.85,177.51 366.85,175.94 396.57,158.78 		"/>
		<g>
			<polygon class="st2" points="344.98,101.27 338.31,105.12 338.31,103.13 344.98,99.28 			"/>
			<polygon class="st2" points="362.71,91.04 348.06,99.5 348.06,97.5 362.71,89.04 			"/>
		</g>
		<g>
			<polygon class="st2" points="344.98,107.5 338.31,111.35 338.31,109.36 344.98,105.51 			"/>
			<polygon class="st2" points="362.71,97.27 348.06,105.73 348.06,103.73 362.71,95.27 			"/>
		</g>
		<g>
			<polygon class="st2" points="344.98,113.74 338.31,117.58 338.31,115.59 344.98,111.74 			"/>
			<polygon class="st2" points="362.71,103.5 348.06,111.96 348.06,109.96 362.71,101.5 			"/>
		</g>
		<g>
			<polygon class="st2" points="344.98,119.97 338.31,123.81 338.31,121.82 344.98,117.97 			"/>
			<polygon class="st2" points="362.71,109.73 348.06,118.19 348.06,116.19 362.71,107.73 			"/>
		</g>
		<g>
			<polygon class="st2" points="344.98,126.2 338.31,130.04 338.31,128.05 344.98,124.2 			"/>
			<polygon class="st2" points="362.71,115.96 348.06,124.42 348.06,122.42 362.71,113.96 			"/>
		</g>
		<g>
			<polygon class="st2" points="344.98,132.43 338.31,136.28 338.31,134.28 344.98,130.43 			"/>
			<polygon class="st2" points="362.71,122.19 348.06,130.65 348.06,128.65 362.71,120.19 			"/>
		</g>
		<g>
			<polygon class="st2" points="362.05,162.66 355.39,166.5 357.11,167.5 363.78,163.65 			"/>
			<polygon class="st2" points="379.78,152.42 365.13,160.88 366.86,161.88 381.51,153.42 			"/>
		</g>
		<g>
			<polygon class="st2" points="357.38,159.84 350.72,163.69 352.45,164.69 359.11,160.84 			"/>
			<polygon class="st2" points="375.11,149.6 360.46,158.07 362.19,159.06 376.84,150.6 			"/>
		</g>
		<g class="st68">
			<g class="st69">
				<path class="st70" d="M372.17,162.38l3.23,1.87l-1.08,0.62l-3.23-1.87l-1.12,0.65l-1.02-0.59l3.32-1.92l1.02,0.59L372.17,162.38
					z"/>
				<path class="st70" d="M380.07,161.55l-1.14,0.66l-1.12-0.33l-1.13,0.65l0.59,0.64l-1.14,0.66l-2.78-3.3l0.97-0.56L380.07,161.55
					z M376.59,161.47l-1.53-0.55l-0.03,0.02l0.93,0.9L376.59,161.47z"/>
				<path class="st70" d="M378.45,157.58l1.24-0.72l0.95,1.91l3.3,0.54l-1.24,0.72l-2.19-0.41l0.72,1.25l-1.25,0.72l-0.93-1.91
					l-3.31-0.54l1.25-0.72l2.17,0.42L378.45,157.58z"/>
			</g>
			<g class="st69">
				<path class="st70" d="M372.76,168.05c-0.47,0-0.93-0.1-1.28-0.3l-6.19-3.57c-0.4-0.23-0.62-0.57-0.62-0.96
					c0-0.44,0.29-0.85,0.8-1.15l12.81-7.4c0.86-0.49,2.12-0.54,2.87-0.1l6.19,3.57c0.4,0.23,0.62,0.57,0.62,0.96
					c0,0.44-0.29,0.85-0.8,1.15l-12.81,7.4C373.89,167.92,373.31,168.05,372.76,168.05z M379.88,155.05c-0.42,0-0.87,0.1-1.21,0.3
					l-12.81,7.4c-0.3,0.18-0.41,0.36-0.41,0.47c0,0.13,0.15,0.23,0.23,0.28l6.19,3.57c0.52,0.3,1.48,0.25,2.09-0.1l12.81-7.4
					c0.3-0.18,0.41-0.36,0.41-0.47c0-0.13-0.15-0.23-0.23-0.28l-6.19-3.57C380.53,155.12,380.21,155.05,379.88,155.05z"/>
			</g>
		</g>
	</g>
</g>
</svg>
